<svg width="38" height="37" viewBox="0 0 38 37" fill="none" xmlns="http://www.w3.org/2000/svg">
<circle cx="19" cy="18.5" r="18.2394" fill="url(#paint0_linear_1836_16105)" stroke="#3F3F3F" stroke-width="0.521127"/>
<g clip-path="url(#clip0_1836_16105)">
<path d="M14.1157 17.7564C13.9399 17.5804 13.8411 17.3419 13.8411 17.0932C13.8411 16.8444 13.9399 16.6059 14.1157 16.43L18.3368 12.2089C18.5127 12.033 18.7513 11.9342 19 11.9342C19.2488 11.9342 19.4873 12.033 19.6632 12.2089L23.8843 16.43C24.0552 16.6069 24.1497 16.8438 24.1476 17.0898C24.1455 17.3357 24.0468 17.571 23.8729 17.7449C23.699 17.9188 23.4637 18.0175 23.2178 18.0196C22.9718 18.0218 22.7349 17.9272 22.558 17.7564L19.938 15.2171L19.938 24.1284C19.938 24.3772 19.8392 24.6157 19.6633 24.7917C19.4874 24.9676 19.2488 25.0664 19 25.0664C18.7512 25.0664 18.5126 24.9676 18.3367 24.7917C18.1608 24.6157 18.062 24.3772 18.062 24.1284L18.062 15.2171L15.4421 17.7564C15.2662 17.9322 15.0276 18.031 14.7789 18.031C14.5302 18.031 14.2916 17.9322 14.1157 17.7564Z" fill="white"/>
</g>
<defs>
<linearGradient id="paint0_linear_1836_16105" x1="19" y1="0" x2="19" y2="37" gradientUnits="userSpaceOnUse">
<stop stop-color="white" stop-opacity="0.05"/>
<stop offset="1" stop-color="#999999" stop-opacity="0.03"/>
</linearGradient>
<clipPath id="clip0_1836_16105">
<rect width="14.0704" height="14.0704" fill="white" transform="translate(11.9648 25.5352) rotate(-90)"/>
</clipPath>
</defs>
</svg>
