<svg width="91" height="22" viewBox="0 0 91 22" fill="none" xmlns="http://www.w3.org/2000/svg">
<path d="M0.904934 21.2211H21.4866V0.639404H0.904934V21.2211ZM34.5343 19.7804V2.80048H38.9491C40.5888 2.80048 41.8683 3.16409 42.7876 3.89131C43.7138 4.61167 44.1769 5.67506 44.1769 7.08148C44.1769 8.87895 43.4153 10.1344 41.8923 10.8479C43.1135 11.0332 44.0499 11.4928 44.7017 12.2269C45.3534 12.9541 45.6793 13.9112 45.6793 15.0981C45.6793 16.0723 45.4598 16.9092 45.0207 17.609C44.5816 18.3088 43.9539 18.8474 43.1375 19.2247C42.3279 19.5952 41.364 19.7804 40.2457 19.7804H34.5343ZM37.2305 9.95263H38.3522C39.395 9.95263 40.1943 9.73309 40.75 9.29401C41.3057 8.85494 41.5836 8.22719 41.5836 7.41079C41.5836 6.58752 41.3091 5.96321 40.7603 5.53785C40.2114 5.1125 39.4088 4.89982 38.3522 4.89982H37.2305V9.95263ZM37.2305 17.6605H39.371C40.5167 17.6605 41.3846 17.4341 41.9746 16.9813C42.5715 16.5285 42.8699 15.8733 42.8699 15.0157C42.8699 14.1444 42.5646 13.4721 41.954 12.9987C41.3503 12.5253 40.4893 12.2887 39.371 12.2887H37.2305V17.6605ZM51.6012 20.1097C50.627 20.1097 49.742 19.8696 48.9462 19.3893C48.1572 18.9022 47.5295 18.2368 47.063 17.3929C46.6033 16.5491 46.3735 15.5852 46.3735 14.5012C46.3735 13.4309 46.5964 12.4773 47.0424 11.6403C47.4952 10.7965 48.1161 10.131 48.905 9.6439C49.694 9.1568 50.5927 8.91325 51.6012 8.91325C52.4245 8.91325 53.1826 9.08477 53.8755 9.42779C54.5684 9.77082 55.1173 10.2476 55.522 10.8582V9.24256H58.0845V19.7804H55.522V18.0927C55.0555 18.7307 54.4827 19.2281 53.8035 19.5849C53.1311 19.9348 52.397 20.1097 51.6012 20.1097ZM52.3319 17.9178C52.9699 17.9178 53.5325 17.7737 54.0196 17.4855C54.5067 17.1905 54.8909 16.7858 55.1722 16.2712C55.4534 15.7567 55.5941 15.1701 55.5941 14.5115C55.5941 13.846 55.4534 13.2594 55.1722 12.7517C54.8909 12.2372 54.5067 11.8359 54.0196 11.5477C53.5325 11.2527 52.9699 11.1052 52.3319 11.1052C51.7007 11.1052 51.1381 11.2527 50.6442 11.5477C50.1502 11.8359 49.7626 12.2372 49.4813 12.7517C49.2 13.2663 49.0594 13.8529 49.0594 14.5115C49.0594 15.1701 49.2 15.7567 49.4813 16.2712C49.7626 16.7858 50.1502 17.1905 50.6442 17.4855C51.1381 17.7737 51.7007 17.9178 52.3319 17.9178ZM63.9564 20.1097C63.0027 20.1097 62.2584 19.801 61.7232 19.1835C61.195 18.5661 60.9309 17.6982 60.9309 16.5799V11.1875H59.6445V9.24256H60.9309V5.30116H63.4933V9.24256H65.9219V11.1875H63.4933V16.405C63.4933 16.8647 63.5859 17.218 63.7711 17.465C63.9564 17.7051 64.2205 17.8251 64.5635 17.8251C64.9203 17.8251 65.2461 17.7154 65.5412 17.4958L66.1895 19.5437C65.8808 19.7221 65.5274 19.8593 65.1295 19.9553C64.7316 20.0582 64.3406 20.1097 63.9564 20.1097ZM71.0426 20.1097C70.089 20.1097 69.3446 19.801 68.8095 19.1835C68.2812 18.5661 68.0171 17.6982 68.0171 16.5799V11.1875H66.7307V9.24256H68.0171V5.30116H70.5795V9.24256H73.0081V11.1875H70.5795V16.405C70.5795 16.8647 70.6721 17.218 70.8573 17.465C71.0426 17.7051 71.3067 17.8251 71.6497 17.8251C72.0065 17.8251 72.3324 17.7154 72.6274 17.4958L73.2757 19.5437C72.967 19.7221 72.6136 19.8593 72.2157 19.9553C71.8178 20.0582 71.4268 20.1097 71.0426 20.1097ZM74.9769 19.7804V2.08012H77.5393V19.7804H74.9769ZM85.2962 20.1097C84.1711 20.1097 83.1626 19.8662 82.2707 19.3791C81.3857 18.892 80.6825 18.2265 80.1611 17.3826C79.6465 16.5388 79.3893 15.5886 79.3893 14.5321C79.3893 13.75 79.5368 13.0193 79.8318 12.3401C80.1268 11.6609 80.535 11.064 81.0564 10.5495C81.5778 10.035 82.185 9.63361 82.8779 9.34547C83.5708 9.05732 84.3186 8.91325 85.1213 8.91325C86.219 8.91325 87.1794 9.13965 88.0027 9.59245C88.8328 10.0452 89.4777 10.6764 89.9374 11.486C90.4039 12.2955 90.6372 13.2388 90.6372 14.316C90.6372 14.4051 90.6337 14.4806 90.6269 14.5424C90.62 14.5972 90.6063 14.6933 90.5857 14.8305H82.0031C82.0031 15.4685 82.1472 16.0311 82.4354 16.5182C82.7235 16.9984 83.1248 17.3758 83.6394 17.6502C84.1608 17.9178 84.7577 18.0515 85.43 18.0515C86.068 18.0515 86.634 17.9246 87.128 17.6708C87.6288 17.4101 88.0816 17.0156 88.4864 16.4873L90.349 17.4444C89.8482 18.2814 89.1519 18.9365 88.26 19.4099C87.375 19.8764 86.3871 20.1097 85.2962 20.1097ZM82.1163 13.2251H88.0953C88.0061 12.7449 87.8243 12.3298 87.5499 11.9799C87.2755 11.63 86.929 11.359 86.5105 11.1669C86.092 10.968 85.6255 10.8685 85.111 10.8685C84.569 10.8685 84.0853 10.9646 83.66 11.1567C83.2346 11.3488 82.8882 11.6197 82.6206 11.9696C82.353 12.3195 82.185 12.738 82.1163 13.2251Z" fill="white"/>
</svg>
