<svg width="18" height="19" viewBox="0 0 18 19" fill="none" xmlns="http://www.w3.org/2000/svg">
<path d="M15.875 2.20605H13.8125V1.51855C13.8125 1.33622 13.7401 1.16135 13.6111 1.03242C13.4822 0.903487 13.3073 0.831055 13.125 0.831055C12.9427 0.831055 12.7678 0.903487 12.6389 1.03242C12.5099 1.16135 12.4375 1.33622 12.4375 1.51855V2.20605H5.5625V1.51855C5.5625 1.33622 5.49007 1.16135 5.36114 1.03242C5.2322 0.903487 5.05734 0.831055 4.875 0.831055C4.69266 0.831055 4.5178 0.903487 4.38886 1.03242C4.25993 1.16135 4.1875 1.33622 4.1875 1.51855V2.20605H2.125C1.76033 2.20605 1.41059 2.35092 1.15273 2.60878C0.894866 2.86665 0.75 3.21638 0.75 3.58105V17.3311C0.75 17.6957 0.894866 18.0455 1.15273 18.3033C1.41059 18.5612 1.76033 18.7061 2.125 18.7061H15.875C16.2397 18.7061 16.5894 18.5612 16.8473 18.3033C17.1051 18.0455 17.25 17.6957 17.25 17.3311V3.58105C17.25 3.21638 17.1051 2.86665 16.8473 2.60878C16.5894 2.35092 16.2397 2.20605 15.875 2.20605ZM4.1875 3.58105V4.26855C4.1875 4.45089 4.25993 4.62576 4.38886 4.75469C4.5178 4.88362 4.69266 4.95605 4.875 4.95605C5.05734 4.95605 5.2322 4.88362 5.36114 4.75469C5.49007 4.62576 5.5625 4.45089 5.5625 4.26855V3.58105H12.4375V4.26855C12.4375 4.45089 12.5099 4.62576 12.6389 4.75469C12.7678 4.88362 12.9427 4.95605 13.125 4.95605C13.3073 4.95605 13.4822 4.88362 13.6111 4.75469C13.7401 4.62576 13.8125 4.45089 13.8125 4.26855V3.58105H15.875V6.33105H2.125V3.58105H4.1875ZM15.875 17.3311H2.125V7.70605H15.875V17.3311ZM7.625 9.76855V15.2686C7.625 15.4509 7.55257 15.6258 7.42364 15.7547C7.2947 15.8836 7.11984 15.9561 6.9375 15.9561C6.75516 15.9561 6.5803 15.8836 6.45136 15.7547C6.32243 15.6258 6.25 15.4509 6.25 15.2686V10.8806L5.87016 11.0714C5.70697 11.153 5.51804 11.1664 5.34495 11.1087C5.17186 11.051 5.02878 10.9269 4.94719 10.7637C4.86559 10.6005 4.85217 10.4116 4.90986 10.2385C4.96756 10.0654 5.09165 9.92234 5.25484 9.84074L6.62984 9.15324C6.7347 9.10077 6.85123 9.07599 6.96836 9.08125C7.08549 9.08652 7.19933 9.12165 7.29906 9.18331C7.39878 9.24497 7.48108 9.33111 7.53813 9.43355C7.59518 9.53598 7.62508 9.65131 7.625 9.76855ZM12.7091 12.3854L11.0625 14.5811H12.4375C12.6198 14.5811 12.7947 14.6535 12.9236 14.7824C13.0526 14.9113 13.125 15.0862 13.125 15.2686C13.125 15.4509 13.0526 15.6258 12.9236 15.7547C12.7947 15.8836 12.6198 15.9561 12.4375 15.9561H9.6875C9.55982 15.9561 9.43467 15.9205 9.32606 15.8534C9.21745 15.7863 9.12968 15.6902 9.07258 15.576C9.01548 15.4618 8.99131 15.334 9.00278 15.2068C9.01424 15.0797 9.06089 14.9582 9.1375 14.8561L11.6108 11.5586C11.667 11.4837 11.7074 11.3981 11.7294 11.3071C11.7514 11.216 11.7545 11.1215 11.7386 11.0291C11.7227 10.9368 11.6882 10.8487 11.637 10.7703C11.5859 10.6918 11.5192 10.6246 11.4412 10.5728C11.3631 10.521 11.2753 10.4858 11.1831 10.4691C11.0909 10.4525 10.9963 10.4549 10.9051 10.4762C10.8139 10.4974 10.7279 10.5371 10.6526 10.5927C10.5773 10.6484 10.5141 10.7189 10.467 10.7998C10.4231 10.8805 10.3636 10.9516 10.2919 11.0089C10.2202 11.0662 10.1377 11.1085 10.0493 11.1334C9.96095 11.1584 9.86849 11.1653 9.7774 11.1539C9.6863 11.1425 9.59841 11.113 9.51891 11.0671C9.43941 11.0211 9.36992 10.9598 9.31452 10.8865C9.25913 10.8133 9.21896 10.7298 9.19639 10.6408C9.17381 10.5518 9.16929 10.4592 9.18309 10.3684C9.19689 10.2776 9.22872 10.1906 9.27672 10.1123C9.50382 9.7193 9.85422 9.41219 10.2736 9.23858C10.693 9.06496 11.1579 9.03454 11.5964 9.15203C12.0348 9.26952 12.4222 9.52836 12.6986 9.88842C12.975 10.2485 13.1248 10.6897 13.125 11.1436C13.1265 11.5919 12.9803 12.0283 12.7091 12.3854Z" fill="#00FF00"/>
</svg>
