<svg width="22" height="22" viewBox="0 0 22 22" fill="none" xmlns="http://www.w3.org/2000/svg">
<g clip-path="url(#clip0_163_1246)">
<path fill-rule="evenodd" clip-rule="evenodd" d="M11 19.9375C12.569 19.9398 14.1107 19.5271 15.4688 18.7413V15.8125C15.4688 14.992 15.1428 14.2051 14.5626 13.6249C13.9824 13.0447 13.1955 12.7188 12.375 12.7188H9.625C8.80449 12.7188 8.01758 13.0447 7.43739 13.6249C6.8572 14.2051 6.53125 14.992 6.53125 15.8125V18.7413C7.88928 19.5271 9.43099 19.9398 11 19.9375ZM17.5312 15.8125V17.1009C18.7202 15.8281 19.5114 14.2355 19.8074 12.5191C20.1035 10.8027 19.8916 9.0372 19.1978 7.43961C18.5039 5.84201 17.3584 4.48197 15.902 3.52666C14.4456 2.57135 12.7418 2.06242 11 2.06242C9.25824 2.06242 7.55443 2.57135 6.09803 3.52666C4.64162 4.48197 3.49609 5.84201 2.80225 7.43961C2.10841 9.0372 1.8965 10.8027 2.19257 12.5191C2.48864 14.2355 3.27978 15.8281 4.46875 17.1009V15.8125C4.46834 14.7494 4.79656 13.7121 5.40848 12.8427C6.02039 11.9733 6.88608 11.3143 7.887 10.956C7.36778 10.3588 7.03131 9.62483 6.91772 8.84166C6.80412 8.05849 6.91821 7.25918 7.24635 6.53907C7.5745 5.81895 8.10287 5.20842 8.76842 4.7803C9.43398 4.35219 10.2086 4.12455 11 4.12455C11.7914 4.12455 12.566 4.35219 13.2316 4.7803C13.8971 5.20842 14.4255 5.81895 14.7536 6.53907C15.0818 7.25918 15.1959 8.05849 15.0823 8.84166C14.9687 9.62483 14.6322 10.3588 14.113 10.956C15.1139 11.3143 15.9796 11.9733 16.5915 12.8427C17.2034 13.7121 17.5317 14.7494 17.5312 15.8125ZM11 22C13.9174 22 16.7153 20.8411 18.7782 18.7782C20.8411 16.7153 22 13.9174 22 11C22 8.08262 20.8411 5.28473 18.7782 3.22183C16.7153 1.15893 13.9174 0 11 0C8.08262 0 5.28473 1.15893 3.22183 3.22183C1.15893 5.28473 0 8.08262 0 11C0 13.9174 1.15893 16.7153 3.22183 18.7782C5.28473 20.8411 8.08262 22 11 22ZM13.0625 8.25C13.0625 8.79701 12.8452 9.32161 12.4584 9.70841C12.0716 10.0952 11.547 10.3125 11 10.3125C10.453 10.3125 9.92839 10.0952 9.54159 9.70841C9.1548 9.32161 8.9375 8.79701 8.9375 8.25C8.9375 7.70299 9.1548 7.17839 9.54159 6.79159C9.92839 6.4048 10.453 6.1875 11 6.1875C11.547 6.1875 12.0716 6.4048 12.4584 6.79159C12.8452 7.17839 13.0625 7.70299 13.0625 8.25Z" fill="white"/>
</g>
<defs>
<clipPath id="clip0_163_1246">
<rect width="22" height="22" fill="white"/>
</clipPath>
</defs>
</svg>
