<svg width="16" height="16" viewBox="0 0 16 16" fill="none" xmlns="http://www.w3.org/2000/svg">
<path d="M15.3631 13.8605C15.5622 14.0596 15.6741 14.3297 15.6741 14.6113C15.6741 14.8929 15.5622 15.1629 15.3631 15.3621C15.164 15.5612 14.894 15.673 14.6124 15.673C14.3308 15.673 14.0607 15.5612 13.8616 15.3621L8.2538 9.7525L2.64424 15.3603C2.44512 15.5594 2.17507 15.6713 1.89347 15.6713C1.61188 15.6713 1.34182 15.5594 1.1427 15.3603C0.943588 15.1612 0.831726 14.8911 0.831726 14.6095C0.831726 14.3279 0.943588 14.0579 1.1427 13.8588L6.75227 8.25096L1.14447 2.6414C0.945355 2.44228 0.833493 2.17223 0.833493 1.89063C0.833493 1.60904 0.945355 1.33898 1.14447 1.13986C1.34359 0.940748 1.61365 0.828886 1.89524 0.828886C2.17683 0.828886 2.44689 0.940748 2.64601 1.13986L8.2538 6.74943L13.8634 1.13898C14.0625 0.939865 14.3325 0.828003 14.6141 0.828003C14.8957 0.828003 15.1658 0.939865 15.3649 1.13898C15.564 1.3381 15.6759 1.60816 15.6759 1.88975C15.6759 2.17134 15.564 2.4414 15.3649 2.64052L9.75534 8.25096L15.3631 13.8605Z" fill="#00FF00"/>
</svg>
