<svg width="19" height="19" viewBox="0 0 19 19" fill="none" xmlns="http://www.w3.org/2000/svg">
<path d="M16.5 7.455C16.4922 7.38609 16.4772 7.31821 16.455 7.2525V7.185C16.4198 7.10741 16.3716 7.0364 16.3125 6.975L11.8125 2.475C11.7511 2.41592 11.6801 2.36773 11.6025 2.3325C11.5801 2.32911 11.5574 2.32911 11.535 2.3325C11.4586 2.28917 11.3746 2.26114 11.2875 2.25H8.25C7.65326 2.25 7.08097 2.48705 6.65901 2.90901C6.23705 3.33097 6 3.90326 6 4.5V5.25H5.25C4.65326 5.25 4.08097 5.48705 3.65901 5.90901C3.23705 6.33097 3 6.90326 3 7.5V15C3 15.5967 3.23705 16.169 3.65901 16.591C4.08097 17.0129 4.65326 17.25 5.25 17.25H11.25C11.8467 17.25 12.419 17.0129 12.841 16.591C13.2629 16.169 13.5 15.5967 13.5 15V14.25H14.25C14.8467 14.25 15.419 14.0129 15.841 13.591C16.2629 13.169 16.5 12.5967 16.5 12V7.455ZM12 4.8075L13.9425 6.75H12.75C12.5511 6.75 12.3603 6.67098 12.2197 6.53033C12.079 6.38968 12 6.19891 12 6V4.8075ZM12 15C12 15.1989 11.921 15.3897 11.7803 15.5303C11.6397 15.671 11.4489 15.75 11.25 15.75H5.25C5.05109 15.75 4.86032 15.671 4.71967 15.5303C4.57902 15.3897 4.5 15.1989 4.5 15V7.5C4.5 7.30109 4.57902 7.11032 4.71967 6.96967C4.86032 6.82902 5.05109 6.75 5.25 6.75H6V12C6 12.5967 6.23705 13.169 6.65901 13.591C7.08097 14.0129 7.65326 14.25 8.25 14.25H12V15ZM15 12C15 12.1989 14.921 12.3897 14.7803 12.5303C14.6397 12.671 14.4489 12.75 14.25 12.75H8.25C8.05109 12.75 7.86032 12.671 7.71967 12.5303C7.57902 12.3897 7.5 12.1989 7.5 12V4.5C7.5 4.30109 7.57902 4.11032 7.71967 3.96967C7.86032 3.82902 8.05109 3.75 8.25 3.75H10.5V6C10.5 6.59674 10.7371 7.16903 11.159 7.59099C11.581 8.01295 12.1533 8.25 12.75 8.25H15V12Z" fill="#00FF00"/>
</svg>
