<svg width="21" height="21" viewBox="0 0 21 21" fill="none" xmlns="http://www.w3.org/2000/svg">
<g clip-path="url(#clip0_242_2892)">
<path d="M6.97168 12.2428C7.06688 13.4378 8.01132 14.3684 9.7048 14.4786V15.3605H10.4563V14.4724C12.21 14.3496 13.2346 13.4127 13.2346 12.0524C13.2346 10.8161 12.4505 10.1785 11.0488 9.84787L10.4563 9.70758V7.30639C11.2079 7.39157 11.6864 7.80241 11.8016 8.37108H13.1193C13.0241 7.21996 12.0371 6.31936 10.4563 6.22166V5.33984H9.7048V6.24045C8.20797 6.387 7.18712 7.2876 7.18712 8.56147C7.18712 9.68879 7.94618 10.4053 9.20753 10.6996L9.7048 10.8224V13.3701C8.93447 13.2536 8.42467 12.8315 8.30943 12.2428H6.97168ZM9.69854 9.52971C8.95952 9.35811 8.5587 9.00864 8.5587 8.48256C8.5587 7.89385 8.99083 7.45294 9.7048 7.32393V9.52846L9.69854 9.52971ZM10.5653 11.024C11.4634 11.232 11.878 11.5689 11.878 12.1639C11.878 12.8428 11.362 13.3087 10.4563 13.3939V10.999L10.5653 11.024Z" fill="#00FF00"/>
<path d="M10.1031 19.1178C7.77771 19.1178 5.54752 18.194 3.9032 16.5497C2.25887 14.9053 1.3351 12.6751 1.3351 10.3497C1.3351 8.02429 2.25887 5.79411 3.9032 4.14978C5.54752 2.50545 7.77771 1.58168 10.1031 1.58168C12.4286 1.58168 14.6588 2.50545 16.3031 4.14978C17.9474 5.79411 18.8712 8.02429 18.8712 10.3497C18.8712 12.6751 17.9474 14.9053 16.3031 16.5497C14.6588 18.194 12.4286 19.1178 10.1031 19.1178ZM10.1031 20.3703C12.7608 20.3703 15.3096 19.3146 17.1888 17.4354C19.068 15.5561 20.1238 13.0074 20.1238 10.3497C20.1238 7.69209 19.068 5.1433 17.1888 3.26407C15.3096 1.38484 12.7608 0.329102 10.1031 0.329102C7.4455 0.329102 4.89672 1.38484 3.01749 3.26407C1.13826 5.1433 0.0825195 7.69209 0.0825195 10.3497C0.0825195 13.0074 1.13826 15.5561 3.01749 17.4354C4.89672 19.3146 7.4455 20.3703 10.1031 20.3703Z" fill="#00FF00"/>
<path d="M10.1029 17.2386C8.27574 17.2386 6.52345 16.5128 5.23148 15.2208C3.93951 13.9289 3.21369 12.1766 3.21369 10.3494C3.21369 8.52233 3.93951 6.77004 5.23148 5.47807C6.52345 4.18609 8.27574 3.46027 10.1029 3.46027C11.93 3.46027 13.6823 4.18609 14.9742 5.47807C16.2662 6.77004 16.992 8.52233 16.992 10.3494C16.992 12.1766 16.2662 13.9289 14.9742 15.2208C13.6823 16.5128 11.93 17.2386 10.1029 17.2386ZM10.1029 17.8649C11.0898 17.8649 12.0671 17.6705 12.9789 17.2928C13.8907 16.9151 14.7192 16.3616 15.4171 15.6637C16.115 14.9658 16.6686 14.1373 17.0463 13.2255C17.4239 12.3137 17.6183 11.3364 17.6183 10.3494C17.6183 9.3625 17.4239 8.38522 17.0463 7.4734C16.6686 6.56159 16.115 5.73309 15.4171 5.03521C14.7192 4.33734 13.8907 3.78375 12.9789 3.40606C12.0671 3.02838 11.0898 2.83398 10.1029 2.83398C8.10964 2.83398 6.19805 3.62579 4.78863 5.03521C3.37921 6.44464 2.5874 8.35622 2.5874 10.3494C2.5874 12.3427 3.37921 14.2543 4.78863 15.6637C6.19805 17.0731 8.10964 17.8649 10.1029 17.8649Z" fill="#00FF00"/>
</g>
<defs>
<clipPath id="clip0_242_2892">
<rect width="20.0412" height="20.0412" fill="white" transform="translate(0.0825195 0.330078)"/>
</clipPath>
</defs>
</svg>
