<svg width="36" height="18" viewBox="0 0 36 18" fill="none" xmlns="http://www.w3.org/2000/svg">
<g clip-path="url(#clip0_1781_12654)">
<path fill-rule="evenodd" clip-rule="evenodd" d="M16.9326 15.2354L9.50756 7.81041C8.92186 7.22471 8.92186 6.2751 9.50756 5.68941C10.0933 5.10371 11.0429 5.10371 11.6286 5.68941L16.5789 10.6397C17.3599 11.4207 18.6262 11.4207 19.4073 10.6397L24.3576 5.68941C24.9433 5.10371 25.8929 5.10371 26.4786 5.68941C27.0643 6.2751 27.0643 7.22471 26.4786 7.81041L19.0536 15.2354C18.7723 15.5166 18.3908 15.6746 17.9931 15.6746C17.5953 15.6746 17.2139 15.5166 16.9326 15.2354Z" fill="white"/>
</g>
<defs>
<clipPath id="clip0_1781_12654">
<rect width="18" height="36" fill="white" transform="matrix(0 1 -1 0 36 0)"/>
</clipPath>
</defs>
</svg>
