<svg width="25" height="25" viewBox="0 0 25 25" fill="none" xmlns="http://www.w3.org/2000/svg">
<g clip-path="url(#clip0_252_3325)">
<path d="M24.4688 12.25C24.4688 5.62262 19.0961 0.25 12.4688 0.25C5.84137 0.25 0.46875 5.62262 0.46875 12.25C0.46875 18.2395 4.857 23.204 10.5938 24.1042V15.7188H7.54688V12.25H10.5938V9.60625C10.5938 6.59875 12.3853 4.9375 15.1264 4.9375C16.4393 4.9375 17.8125 5.17188 17.8125 5.17188V8.125H16.2994C14.8087 8.125 14.3438 9.05003 14.3438 9.99906V12.25H17.6719L17.1398 15.7188H14.3438V24.1042C20.0805 23.204 24.4688 18.2396 24.4688 12.25Z" fill="#1877F2"/>
<path d="M17.1398 15.7188L17.6719 12.25H14.3438V9.99906C14.3438 9.04994 14.8087 8.125 16.2994 8.125H17.8125V5.17188C17.8125 5.17188 16.4392 4.9375 15.1263 4.9375C12.3853 4.9375 10.5938 6.59875 10.5938 9.60625V12.25H7.54688V15.7188H10.5938V24.1042C11.214 24.2014 11.8409 24.2501 12.4688 24.25C13.0966 24.2501 13.7235 24.2014 14.3438 24.1042V15.7188H17.1398Z" fill="white"/>
</g>
<defs>
<clipPath id="clip0_252_3325">
<rect width="24" height="24" fill="white" transform="translate(0.46875 0.25)"/>
</clipPath>
</defs>
</svg>
