<svg width="11" height="11" viewBox="0 0 11 11" fill="none" xmlns="http://www.w3.org/2000/svg">
<g clip-path="url(#clip0_1574_15134)">
<path d="M9.03545 5.69644C9.16407 5.8251 9.23633 5.99958 9.23633 6.18151C9.23633 6.36344 9.16407 6.53793 9.03545 6.66659L5.94797 9.75407C5.8193 9.88269 5.64482 9.95495 5.46289 9.95495C5.28096 9.95495 5.10648 9.88269 4.97781 9.75407L1.89033 6.66659C1.76535 6.53719 1.6962 6.36388 1.69776 6.18398C1.69933 6.00409 1.77148 5.832 1.89869 5.70479C2.0259 5.57758 2.19799 5.50543 2.37788 5.50386C2.55778 5.5023 2.73109 5.57146 2.86049 5.69644L4.77678 7.55373V1.03572C4.77678 0.853749 4.84907 0.679235 4.97774 0.550565C5.10641 0.421895 5.28092 0.349609 5.46289 0.349609C5.64486 0.349609 5.81937 0.421895 5.94804 0.550565C6.07671 0.679235 6.149 0.853749 6.149 1.03572V7.55373L8.06529 5.69644C8.19396 5.56781 8.36844 5.49555 8.55037 5.49555C8.7323 5.49555 8.90678 5.56781 9.03545 5.69644Z" fill="#00FF00"/>
</g>
<defs>
<clipPath id="clip0_1574_15134">
<rect width="10.2916" height="10.2916" fill="white" transform="matrix(0 1 -1 0 10.6094 0.0078125)"/>
</clipPath>
</defs>
</svg>
