<svg width="22" height="22" viewBox="0 0 22 22" fill="none" xmlns="http://www.w3.org/2000/svg">
<path d="M20.3125 8.61719C20.3125 14.3594 11.7985 19.0073 11.4359 19.1992C11.3403 19.2506 11.2335 19.2775 11.125 19.2775C11.0165 19.2775 10.9097 19.2506 10.8141 19.1992C10.4515 19.0073 1.9375 14.3594 1.9375 8.61719C1.93902 7.26878 2.47535 5.97603 3.42882 5.02257C4.38228 4.0691 5.67503 3.53277 7.02344 3.53125C8.71738 3.53125 10.2005 4.25969 11.125 5.49098C12.0495 4.25969 13.5326 3.53125 15.2266 3.53125C16.575 3.53277 17.8677 4.0691 18.8212 5.02257C19.7747 5.97603 20.311 7.26878 20.3125 8.61719Z" fill="#00FF00"/>
</svg>
