<svg width="32" height="32" viewBox="0 0 32 32" fill="none" xmlns="http://www.w3.org/2000/svg">
<path d="M3.9375 17.3125C8.6625 6.8125 22.8375 6.8125 27.5625 17.3125" stroke="black" stroke-width="1.125" stroke-linecap="round" stroke-linejoin="round"/>
<path d="M15.75 22.5625C15.2329 22.5625 14.7209 22.4607 14.2432 22.2628C13.7655 22.0649 13.3314 21.7749 12.9658 21.4092C12.6001 21.0436 12.3101 20.6095 12.1122 20.1318C11.9143 19.6541 11.8125 19.1421 11.8125 18.625C11.8125 18.1079 11.9143 17.5959 12.1122 17.1182C12.3101 16.6405 12.6001 16.2064 12.9658 15.8408C13.3314 15.4751 13.7655 15.1851 14.2432 14.9872C14.7209 14.7893 15.2329 14.6875 15.75 14.6875C16.7943 14.6875 17.7958 15.1023 18.5342 15.8408C19.2727 16.5792 19.6875 17.5807 19.6875 18.625C19.6875 19.6693 19.2727 20.6708 18.5342 21.4092C17.7958 22.1477 16.7943 22.5625 15.75 22.5625Z" fill="black" stroke="black" stroke-width="1.125" stroke-linecap="round" stroke-linejoin="round"/>
</svg>
