<svg width="25" height="25" viewBox="0 0 25 25" fill="none" xmlns="http://www.w3.org/2000/svg">
<g clip-path="url(#clip0_252_3332)">
<path d="M19.1567 0.25H6.40674C3.30014 0.25 0.781738 2.7684 0.781738 5.875V18.625C0.781738 21.7316 3.30014 24.25 6.40674 24.25H19.1567C22.2633 24.25 24.7817 21.7316 24.7817 18.625V5.875C24.7817 2.7684 22.2633 0.25 19.1567 0.25Z" fill="url(#paint0_radial_252_3332)"/>
<path d="M19.1567 0.25H6.40674C3.30014 0.25 0.781738 2.7684 0.781738 5.875V18.625C0.781738 21.7316 3.30014 24.25 6.40674 24.25H19.1567C22.2633 24.25 24.7817 21.7316 24.7817 18.625V5.875C24.7817 2.7684 22.2633 0.25 19.1567 0.25Z" fill="url(#paint1_radial_252_3332)"/>
<path d="M12.7826 2.875C10.2365 2.875 9.91693 2.88616 8.91699 2.93163C7.91893 2.97738 7.23764 3.13534 6.64158 3.36719C6.02489 3.60662 5.50186 3.92697 4.9808 4.44822C4.45927 4.96937 4.13893 5.49241 3.89874 6.10881C3.66624 6.70506 3.50808 7.38662 3.46318 8.38422C3.41846 9.38425 3.40674 9.70394 3.40674 12.2501C3.40674 14.7963 3.41799 15.1148 3.46336 16.1147C3.5093 17.1128 3.66727 17.7941 3.89893 18.3902C4.13855 19.0068 4.45889 19.5299 4.98014 20.0509C5.50111 20.5725 6.02414 20.8936 6.64036 21.133C7.23689 21.3648 7.91827 21.5228 8.91614 21.5686C9.91618 21.614 10.2355 21.6252 12.7815 21.6252C15.3278 21.6252 15.6464 21.614 16.6463 21.5686C17.6444 21.5228 18.3264 21.3648 18.9229 21.133C19.5393 20.8936 20.0616 20.5725 20.5825 20.0509C21.104 19.5299 21.4243 19.0068 21.6646 18.3904C21.895 17.7941 22.0532 17.1126 22.1001 16.1149C22.145 15.115 22.1567 14.7963 22.1567 12.2501C22.1567 9.70394 22.145 9.38444 22.1001 8.38441C22.0532 7.38634 21.895 6.70516 21.6646 6.10909C21.4243 5.49241 21.104 4.96937 20.5825 4.44822C20.0611 3.92678 19.5395 3.60644 18.9224 3.36728C18.3247 3.13534 17.6431 2.97728 16.645 2.93163C15.645 2.88616 15.3266 2.875 12.7797 2.875H12.7826ZM11.9416 4.56447C12.1912 4.56409 12.4697 4.56447 12.7826 4.56447C15.2858 4.56447 15.5824 4.57347 16.5709 4.61838C17.485 4.66019 17.9811 4.81291 18.3116 4.94125C18.7491 5.11112 19.061 5.31428 19.389 5.6425C19.7171 5.97062 19.9201 6.28309 20.0905 6.72062C20.2188 7.05062 20.3717 7.54675 20.4134 8.46081C20.4583 9.44913 20.468 9.74594 20.468 12.2479C20.468 14.7499 20.4583 15.0468 20.4134 16.0351C20.3716 16.9491 20.2188 17.4452 20.0905 17.7753C19.9206 18.2129 19.7171 18.5244 19.389 18.8523C19.0608 19.1805 18.7493 19.3835 18.3116 19.5535C17.9815 19.6824 17.485 19.8348 16.5709 19.8766C15.5826 19.9215 15.2858 19.9312 12.7826 19.9312C10.2793 19.9312 9.98255 19.9215 8.99433 19.8766C8.08027 19.8344 7.58414 19.6817 7.25339 19.5533C6.81596 19.3833 6.50339 19.1803 6.17527 18.8522C5.84714 18.524 5.64408 18.2123 5.47374 17.7746C5.34539 17.4445 5.19249 16.9484 5.15086 16.0343C5.10596 15.046 5.09696 14.7492 5.09696 12.2456C5.09696 9.742 5.10596 9.44678 5.15086 8.45847C5.19268 7.54441 5.34539 7.04828 5.47374 6.71781C5.64371 6.28028 5.84714 5.96781 6.17536 5.63969C6.50358 5.31156 6.81596 5.10841 7.25349 4.93816C7.58396 4.80925 8.08027 4.65691 8.99433 4.61491C9.85918 4.57581 10.1943 4.56409 11.9416 4.56212V4.56447ZM17.787 6.12109C17.1659 6.12109 16.662 6.62453 16.662 7.24572C16.662 7.86681 17.1659 8.37072 17.787 8.37072C18.4081 8.37072 18.912 7.86681 18.912 7.24572C18.912 6.62463 18.4081 6.12072 17.787 6.12072V6.12109ZM12.7826 7.43556C10.1238 7.43556 7.96814 9.59125 7.96814 12.2501C7.96814 14.9089 10.1238 17.0636 12.7826 17.0636C15.4414 17.0636 17.5964 14.9089 17.5964 12.2501C17.5964 9.59134 15.4412 7.43556 12.7824 7.43556H12.7826ZM12.7826 9.12503C14.5084 9.12503 15.9076 10.5241 15.9076 12.2501C15.9076 13.9759 14.5084 15.3752 12.7826 15.3752C11.0567 15.3752 9.65761 13.9759 9.65761 12.2501C9.65761 10.5241 11.0566 9.12503 12.7826 9.12503Z" fill="white"/>
</g>
<defs>
<radialGradient id="paint0_radial_252_3332" cx="0" cy="0" r="1" gradientUnits="userSpaceOnUse" gradientTransform="translate(7.15674 26.0985) rotate(-90) scale(23.7858 22.1227)">
<stop stop-color="#FFDD55"/>
<stop offset="0.1" stop-color="#FFDD55"/>
<stop offset="0.5" stop-color="#FF543E"/>
<stop offset="1" stop-color="#C837AB"/>
</radialGradient>
<radialGradient id="paint1_radial_252_3332" cx="0" cy="0" r="1" gradientUnits="userSpaceOnUse" gradientTransform="translate(-3.23836 1.97884) rotate(78.681) scale(10.6324 43.827)">
<stop stop-color="#3771C8"/>
<stop offset="0.128" stop-color="#3771C8"/>
<stop offset="1" stop-color="#6600FF" stop-opacity="0"/>
</radialGradient>
<clipPath id="clip0_252_3332">
<rect width="24" height="24" fill="white" transform="translate(0.78125 0.25)"/>
</clipPath>
</defs>
</svg>
