<svg width="49" height="49" viewBox="0 0 49 49" fill="none" xmlns="http://www.w3.org/2000/svg">
<mask id="path-1-inside-1_1114_13349" fill="white">
<path d="M49 24.5C49 30.0495 47.116 35.4345 43.6564 39.7736C40.1968 44.1127 35.3665 47.1487 29.9565 48.3847C24.5464 49.6206 18.877 48.9832 13.8764 46.5769C8.87576 44.1705 4.84023 40.1378 2.43044 35.1388C0.0206566 30.1399 -0.620623 24.4709 0.611589 19.06C1.8438 13.649 4.8765 8.81674 9.2132 5.35414C13.5499 1.89155 18.9337 0.00382485 24.4831 5.80155e-06C30.0326 -0.00381325 35.419 1.8765 39.7604 5.33312L37.1959 8.55419C33.584 5.67847 29.1028 4.11415 24.486 4.11733C19.8691 4.1205 15.3901 5.69099 11.7822 8.57168C8.17431 11.4524 5.65126 15.4726 4.62613 19.9742C3.601 24.4758 4.13451 29.1921 6.13932 33.3509C8.14413 37.5098 11.5015 40.8648 15.6617 42.8668C19.8219 44.8687 24.5386 45.399 29.0395 44.3708C33.5404 43.3425 37.5589 40.8167 40.4371 37.2068C43.3153 33.5969 44.8827 29.1169 44.8827 24.5H49Z"/>
</mask>
<path d="M49 24.5C49 30.0495 47.116 35.4345 43.6564 39.7736C40.1968 44.1127 35.3665 47.1487 29.9565 48.3847C24.5464 49.6206 18.877 48.9832 13.8764 46.5769C8.87576 44.1705 4.84023 40.1378 2.43044 35.1388C0.0206566 30.1399 -0.620623 24.4709 0.611589 19.06C1.8438 13.649 4.8765 8.81674 9.2132 5.35414C13.5499 1.89155 18.9337 0.00382485 24.4831 5.80155e-06C30.0326 -0.00381325 35.419 1.8765 39.7604 5.33312L37.1959 8.55419C33.584 5.67847 29.1028 4.11415 24.486 4.11733C19.8691 4.1205 15.3901 5.69099 11.7822 8.57168C8.17431 11.4524 5.65126 15.4726 4.62613 19.9742C3.601 24.4758 4.13451 29.1921 6.13932 33.3509C8.14413 37.5098 11.5015 40.8648 15.6617 42.8668C19.8219 44.8687 24.5386 45.399 29.0395 44.3708C33.5404 43.3425 37.5589 40.8167 40.4371 37.2068C43.3153 33.5969 44.8827 29.1169 44.8827 24.5H49Z" stroke="#00FF00" stroke-width="10" stroke-linejoin="bevel" mask="url(#path-1-inside-1_1114_13349)"/>
</svg>
