<svg width="18" height="18" viewBox="0 0 18 18" fill="none" xmlns="http://www.w3.org/2000/svg">
<path d="M15 13.125C15.2889 13.1251 15.5667 13.2364 15.7758 13.4358C15.9849 13.6352 16.1093 13.9074 16.1231 14.1959C16.137 14.4845 16.0394 14.7674 15.8504 14.9859C15.6614 15.2044 15.3956 15.3419 15.108 15.3698L15 15.375H3C2.71109 15.3749 2.4333 15.2636 2.22421 15.0642C2.01512 14.8648 1.89074 14.5926 1.87686 14.3041C1.86297 14.0155 1.96064 13.7326 2.14963 13.5141C2.33862 13.2956 2.60444 13.1581 2.892 13.1302L3 13.125H15ZM15 7.875C15.2984 7.875 15.5845 7.99353 15.7955 8.2045C16.0065 8.41548 16.125 8.70163 16.125 9C16.125 9.29837 16.0065 9.58452 15.7955 9.7955C15.5845 10.0065 15.2984 10.125 15 10.125H3C2.70163 10.125 2.41548 10.0065 2.2045 9.7955C1.99353 9.58452 1.875 9.29837 1.875 9C1.875 8.70163 1.99353 8.41548 2.2045 8.2045C2.41548 7.99353 2.70163 7.875 3 7.875H15ZM15 2.625C15.2984 2.625 15.5845 2.74353 15.7955 2.9545C16.0065 3.16548 16.125 3.45163 16.125 3.75C16.125 4.04837 16.0065 4.33452 15.7955 4.5455C15.5845 4.75647 15.2984 4.875 15 4.875H3C2.70163 4.875 2.41548 4.75647 2.2045 4.5455C1.99353 4.33452 1.875 4.04837 1.875 3.75C1.875 3.45163 1.99353 3.16548 2.2045 2.9545C2.41548 2.74353 2.70163 2.625 3 2.625H15Z" fill="white"/>
</svg>
