<svg width="18" height="17" viewBox="0 0 18 17" fill="none" xmlns="http://www.w3.org/2000/svg">
<path d="M13.3926 2.10803L10.4763 6.4356C10.2767 6.73435 10.6655 7.08334 10.9447 6.83905L13.4875 4.3465C13.5622 4.28159 13.6718 4.32626 13.6718 4.43584V12.2387C13.6718 12.3434 13.5322 12.3881 13.4728 12.3134L5.11572 1.92306C4.9794 1.75529 4.80684 1.62059 4.61099 1.52908C4.41515 1.43757 4.20112 1.39161 3.98497 1.39467C3.08735 1.39467 2.20508 1.84837 2.20508 2.88559V13.8588C2.20715 14.182 2.31421 14.4958 2.51012 14.7529C2.70603 15.01 2.98019 15.1964 3.29128 15.2842C3.60237 15.3719 3.93354 15.3562 4.23491 15.2393C4.53628 15.1225 4.79151 14.9109 4.96216 14.6364L7.87351 10.3088C8.07313 10.01 7.68923 9.66104 7.41004 9.90534L4.88259 12.4481C4.80791 12.5131 4.69762 12.4677 4.69762 12.3581V4.57544C4.69762 4.46586 4.83722 4.42607 4.89725 4.50076L13.2383 14.8262C13.5175 15.1703 13.9363 15.3546 14.3698 15.3546C15.2723 15.3546 16.165 14.9058 16.165 13.8637V2.89118C16.1647 2.56515 16.0579 2.24814 15.8609 1.9884C15.6639 1.72865 15.3874 1.5404 15.0735 1.45228C14.7596 1.36417 14.4255 1.38102 14.1221 1.50028C13.8186 1.61953 13.5625 1.83466 13.3926 2.11291V2.10803Z" fill="#00EC97"/>
</svg>
