<svg width="22" height="22" viewBox="0 0 22 22" fill="none" xmlns="http://www.w3.org/2000/svg">
<path d="M15.3252 11.9575C16.9798 12.7385 18.3906 13.9552 19.4063 15.477C20.422 16.9989 21.0044 18.7684 21.091 20.5961C21.1025 20.7635 21.0805 20.9315 21.0262 21.0903C20.9719 21.2491 20.8864 21.3954 20.7748 21.5207C20.6632 21.646 20.5277 21.7478 20.3762 21.82C20.2247 21.8922 20.0604 21.9334 19.8928 21.9413C19.7251 21.9491 19.5576 21.9234 19.4001 21.8656C19.2425 21.8078 19.0981 21.7191 18.9753 21.6048C18.8525 21.4904 18.7538 21.3527 18.6849 21.1997C18.6161 21.0467 18.5785 20.8814 18.5743 20.7137C18.4827 18.7725 17.6471 16.9411 16.241 15.5997C14.8348 14.2583 12.9661 13.5099 11.0227 13.5099C9.07937 13.5099 7.21065 14.2583 5.80448 15.5997C4.39831 16.9411 3.56271 18.7725 3.47112 20.7137C3.44849 21.0422 3.2981 21.3489 3.05216 21.568C2.80622 21.787 2.48429 21.9011 2.15529 21.8857C1.82629 21.8703 1.51639 21.7267 1.29195 21.4857C1.06751 21.2447 0.946375 20.9253 0.954484 20.5961C1.04089 18.7686 1.623 16.9992 2.63843 15.4773C3.65385 13.9555 5.0643 12.7388 6.71856 11.9575C5.6585 11.0733 4.89654 9.88401 4.53633 8.55142C4.17612 7.21884 4.23514 5.80764 4.70536 4.50978C5.17559 3.21192 6.03419 2.09042 7.16437 1.29781C8.29456 0.505209 9.64147 0.0799866 11.0219 0.0799866C12.4023 0.0799866 13.7492 0.505209 14.8794 1.29781C16.0096 2.09042 16.8682 3.21192 17.3384 4.50978C17.8086 5.80764 17.8677 7.21884 17.5074 8.55142C17.1472 9.88401 16.3853 11.0733 15.3252 11.9575ZM15.2227 6.79486C15.2227 5.68095 14.7802 4.61266 13.9926 3.82501C13.2049 3.03736 12.1366 2.59486 11.0227 2.59486C9.90881 2.59486 8.84053 3.03736 8.05288 3.82501C7.26522 4.61266 6.82272 5.68095 6.82272 6.79486C6.82272 7.90877 7.26522 8.97705 8.05288 9.76471C8.84053 10.5524 9.90881 10.9949 11.0227 10.9949C12.1366 10.9949 13.2049 10.5524 13.9926 9.76471C14.7802 8.97705 15.2227 7.90877 15.2227 6.79486Z" fill="white"/>
</svg>
