<svg width="29" height="30" viewBox="0 0 29 30" fill="none" xmlns="http://www.w3.org/2000/svg">
<g clip-path="url(#clip0_179_2151)">
<path d="M26.3281 7.48047H24.1016V6.14453C24.1016 5.79022 23.9608 5.45042 23.7103 5.19988C23.4597 4.94934 23.1199 4.80859 22.7656 4.80859H6.73438C6.38006 4.80859 6.04026 4.94934 5.78972 5.19988C5.53919 5.45042 5.39844 5.79022 5.39844 6.14453V7.48047H3.17188C2.87948 7.48047 2.58995 7.53806 2.31981 7.64996C2.04967 7.76185 1.80421 7.92586 1.59746 8.13261C1.1799 8.55018 0.945313 9.11651 0.945312 9.70703V11.4883C0.946786 12.787 1.46334 14.0321 2.38166 14.9504C3.29997 15.8687 4.54506 16.3852 5.84375 16.3867H5.92947C6.50006 17.9944 7.49866 19.4159 8.81761 20.4978C10.1366 21.5798 11.7258 22.2812 13.4141 22.5265V24.4023H11.1875C10.8332 24.4023 10.4934 24.5431 10.2428 24.7936C9.99231 25.0442 9.85156 25.384 9.85156 25.7383C9.85156 26.0926 9.99231 26.4324 10.2428 26.6829C10.4934 26.9335 10.8332 27.0742 11.1875 27.0742H18.3125C18.6668 27.0742 19.0066 26.9335 19.2572 26.6829C19.5077 26.4324 19.6484 26.0926 19.6484 25.7383C19.6484 25.384 19.5077 25.0442 19.2572 24.7936C19.0066 24.5431 18.6668 24.4023 18.3125 24.4023H16.0859V22.522C19.5304 22.0199 22.3793 19.6052 23.5449 16.3867H23.6562C24.9549 16.3852 26.2 15.8687 27.1183 14.9504C28.0367 14.0321 28.5532 12.787 28.5547 11.4883V9.70703C28.5547 9.11651 28.3201 8.55018 27.9025 8.13261C27.485 7.71505 26.9186 7.48047 26.3281 7.48047ZM3.61719 11.4883V10.1523H5.39844V13.2695C5.39844 13.4042 5.39844 13.5378 5.40846 13.6714C4.9035 13.5708 4.44904 13.2982 4.12244 12.9002C3.79584 12.5021 3.61729 12.0032 3.61719 11.4883ZM21.4297 13.1693C21.4297 16.8799 18.4561 19.9214 14.8012 19.9492C13.9197 19.956 13.0456 19.7882 12.2293 19.4555C11.4129 19.1229 10.6705 18.6319 10.0448 18.011C9.41912 17.39 8.92251 16.6514 8.58363 15.8376C8.24474 15.0238 8.07029 14.151 8.07031 13.2695V7.48047H21.4297V13.1693ZM25.8828 11.4883C25.8828 12.0038 25.7039 12.5034 25.3766 12.9018C25.0493 13.3001 24.594 13.5725 24.0882 13.6725C24.0971 13.5055 24.1016 13.3386 24.1016 13.1693V10.1523H25.8828V11.4883Z" fill="url(#paint0_linear_179_2151)"/>
</g>
<defs>
<linearGradient id="paint0_linear_179_2151" x1="14.75" y1="4.80859" x2="14.75" y2="27.0742" gradientUnits="userSpaceOnUse">
<stop stop-color="white"/>
<stop offset="1" stop-color="#A9A9A9"/>
</linearGradient>
<clipPath id="clip0_179_2151">
<rect width="28.5" height="28.5" fill="white" transform="translate(0.5 0.800781)"/>
</clipPath>
</defs>
</svg>
