<svg width="11" height="11" viewBox="0 0 11 11" fill="none" xmlns="http://www.w3.org/2000/svg">
<path d="M1.89229 4.59751C1.76366 4.46885 1.69141 4.29436 1.69141 4.11243C1.69141 3.9305 1.76366 3.75602 1.89229 3.62736L4.97977 0.539877C5.10843 0.411252 5.28291 0.338994 5.46484 0.338994C5.64678 0.338994 5.82126 0.411252 5.94992 0.539877L9.0374 3.62736C9.16238 3.75676 9.23154 3.93007 9.22997 4.10996C9.22841 4.28986 9.15625 4.46194 9.02904 4.58915C8.90183 4.71636 8.72975 4.78852 8.54985 4.79008C8.36996 4.79164 8.19665 4.72249 8.06725 4.59751L6.15095 2.74022V9.25823C6.15095 9.4402 6.07866 9.61471 5.94999 9.74338C5.82132 9.87205 5.64681 9.94434 5.46484 9.94434C5.28288 9.94434 5.10836 9.87205 4.97969 9.74338C4.85102 9.61471 4.77874 9.4402 4.77874 9.25823V2.74022L2.86244 4.59751C2.73378 4.72613 2.5593 4.79839 2.37737 4.79839C2.19544 4.79839 2.02095 4.72613 1.89229 4.59751Z" fill="#FF543E"/>
</svg>
