<svg width="16" height="15" viewBox="0 0 16 15" fill="none" xmlns="http://www.w3.org/2000/svg">
<g clip-path="url(#clip0_1579_11300)">
<path fill-rule="evenodd" clip-rule="evenodd" d="M7.71731 0.239589C8.9895 0.131021 10.2681 0.35477 11.4278 0.888917C12.5875 1.42306 13.5886 2.24929 14.333 3.28666V1.82532C14.333 1.64204 14.4058 1.46627 14.5354 1.33667C14.665 1.20708 14.8407 1.13427 15.024 1.13427C15.2073 1.13427 15.3831 1.20708 15.5127 1.33667C15.6423 1.46627 15.7151 1.64204 15.7151 1.82532V5.74128H11.7991C11.6158 5.74128 11.4401 5.66847 11.3105 5.53887C11.1809 5.40927 11.1081 5.2335 11.1081 5.05022C11.1081 4.86695 11.1809 4.69117 11.3105 4.56158C11.4401 4.43198 11.6158 4.35917 11.7991 4.35917H13.3904C12.7602 3.37319 11.8551 2.59339 10.7867 2.1161C9.71832 1.63882 8.53353 1.48496 7.37868 1.67353C6.22383 1.8621 5.14952 2.38484 4.28845 3.17718C3.42738 3.96951 2.81728 4.99674 2.53351 6.13195C2.51258 6.22112 2.47413 6.30525 2.42039 6.37943C2.36666 6.45361 2.29871 6.51637 2.2205 6.56406C2.1423 6.61174 2.05539 6.6434 1.96484 6.6572C1.87428 6.671 1.78189 6.66666 1.69303 6.64443C1.60417 6.6222 1.52062 6.58252 1.44723 6.52771C1.37384 6.4729 1.31208 6.40404 1.26554 6.32515C1.219 6.24625 1.18861 6.1589 1.17613 6.06815C1.16366 5.97741 1.16935 5.88509 1.19287 5.79656C1.56562 4.30613 2.39475 2.96941 3.56437 1.97325C4.73398 0.977091 6.18563 0.371285 7.71639 0.24051L7.71731 0.239589ZM4.58455 13.9242C5.57228 14.5097 6.68311 14.8563 7.82851 14.9364C8.9739 15.0166 10.1222 14.828 11.1818 14.3858C12.2414 13.9436 13.1831 13.26 13.9318 12.3894C14.6804 11.5189 15.2154 10.4855 15.4939 9.37159C15.5354 9.19487 15.5057 9.00891 15.4112 8.85392C15.3167 8.69893 15.165 8.58735 14.9889 8.54329C14.8128 8.49923 14.6264 8.52624 14.4701 8.61848C14.3137 8.71071 14.1999 8.86076 14.1533 9.03621C13.8694 10.1712 13.2592 11.1981 12.3983 11.9903C11.5373 12.7824 10.4631 13.305 9.30847 13.4936C8.15381 13.6821 6.96922 13.5284 5.90096 13.0513C4.83271 12.5742 3.92758 11.7947 3.29735 10.809H4.88861C5.07189 10.809 5.24766 10.7362 5.37726 10.6066C5.50686 10.477 5.57966 10.3012 5.57966 10.1179C5.57966 9.93465 5.50686 9.75888 5.37726 9.62928C5.24766 9.49969 5.07189 9.42688 4.88861 9.42688H0.972656V13.3428C0.972656 13.5261 1.04546 13.7019 1.17506 13.8315C1.30466 13.9611 1.48043 14.0339 1.66371 14.0339C1.84699 14.0339 2.02276 13.9611 2.15235 13.8315C2.28195 13.7019 2.35476 13.5261 2.35476 13.3428V11.8815C2.94886 12.7092 3.7081 13.4047 4.58455 13.9242Z" fill="black"/>
</g>
<defs>
<clipPath id="clip0_1579_11300">
<rect width="14.7424" height="14.7424" fill="white" transform="translate(0.972656 0.212891)"/>
</clipPath>
</defs>
</svg>
