<svg width="22" height="22" viewBox="0 0 22 22" fill="none" xmlns="http://www.w3.org/2000/svg">
<path d="M10.4705 15.54H12.2205V10.29H10.4705V15.54ZM11.3455 8.54004C11.5934 8.54004 11.8013 8.45604 11.9693 8.28804C12.1373 8.12004 12.221 7.91237 12.2205 7.66504C12.2199 7.41771 12.1359 7.21004 11.9685 7.04204C11.801 6.87404 11.5934 6.79004 11.3455 6.79004C11.0975 6.79004 10.8899 6.87404 10.7225 7.04204C10.555 7.21004 10.471 7.41771 10.4705 7.66504C10.4699 7.91237 10.5539 8.12033 10.7225 8.28891C10.891 8.4575 11.0987 8.54121 11.3455 8.54004ZM11.3455 19.915C10.135 19.915 8.99754 19.6852 7.93296 19.2255C6.86838 18.7659 5.94234 18.1426 5.15484 17.3557C4.36734 16.5687 3.74404 15.6427 3.28496 14.5775C2.82588 13.5124 2.59604 12.3749 2.59546 11.165C2.59488 9.95521 2.82471 8.81771 3.28496 7.75254C3.74521 6.68737 4.3685 5.76133 5.15484 4.97441C5.94117 4.1875 6.86721 3.56421 7.93296 3.10454C8.99871 2.64487 10.1362 2.41504 11.3455 2.41504C12.5547 2.41504 13.6922 2.64487 14.758 3.10454C15.8237 3.56421 16.7498 4.1875 17.5361 4.97441C18.3224 5.76133 18.946 6.68737 19.4068 7.75254C19.8677 8.81771 20.0972 9.95521 20.0955 11.165C20.0937 12.3749 19.8639 13.5124 19.406 14.5775C18.948 15.6427 18.3248 16.5687 17.5361 17.3557C16.7474 18.1426 15.8214 18.7662 14.758 19.2264C13.6945 19.6867 12.557 19.9162 11.3455 19.915ZM11.3455 18.165C13.2996 18.165 14.9548 17.4869 16.3111 16.1307C17.6673 14.7744 18.3455 13.1192 18.3455 11.165C18.3455 9.21087 17.6673 7.55566 16.3111 6.19941C14.9548 4.84316 13.2996 4.16504 11.3455 4.16504C9.39129 4.16504 7.73608 4.84316 6.37984 6.19941C5.02359 7.55566 4.34546 9.21087 4.34546 11.165C4.34546 13.1192 5.02359 14.7744 6.37984 16.1307C7.73608 17.4869 9.39129 18.165 11.3455 18.165Z" fill="#00FF00"/>
</svg>
