<svg width="12" height="15" viewBox="0 0 12 15" fill="none" xmlns="http://www.w3.org/2000/svg">
<path d="M1.11571 6.75635C0.939853 6.58045 0.841064 6.3419 0.841064 6.09317C0.841064 5.84444 0.939853 5.60589 1.11571 5.42998L5.33683 1.20886C5.51274 1.033 5.75129 0.934213 6.00002 0.934213C6.24875 0.934213 6.4873 1.033 6.6632 1.20886L10.8843 5.42998C11.0552 5.6069 11.1497 5.84384 11.1476 6.08979C11.1455 6.33574 11.0468 6.57101 10.8729 6.74493C10.699 6.91884 10.4637 7.0175 10.2178 7.01963C9.97182 7.02177 9.73487 6.92722 9.55796 6.75635L6.93805 4.21711L6.93805 13.1284C6.93805 13.3772 6.83922 13.6157 6.66331 13.7917C6.48739 13.9676 6.2488 14.0664 6.00002 14.0664C5.75124 14.0664 5.51265 13.9676 5.33673 13.7917C5.16082 13.6157 5.06199 13.3772 5.06199 13.1284L5.06199 4.21711L2.44208 6.75635C2.26617 6.93221 2.02762 7.031 1.77889 7.031C1.53016 7.031 1.29161 6.93221 1.11571 6.75635Z" fill="white"/>
</svg>
