<svg width="26" height="27" viewBox="0 0 26 27" fill="none" xmlns="http://www.w3.org/2000/svg">
<path d="M16.7188 15.625H15.8794L15.5819 15.3381C16.6592 14.0887 17.2513 12.4935 17.25 10.8438C17.25 9.47783 16.845 8.14257 16.0861 7.00685C15.3272 5.87112 14.2486 4.98593 12.9867 4.46321C11.7247 3.94049 10.3361 3.80373 8.99641 4.0702C7.65673 4.33668 6.42615 4.99444 5.4603 5.9603C4.49444 6.92615 3.83668 8.15673 3.5702 9.49641C3.30373 10.8361 3.44049 12.2247 3.96321 13.4867C4.48593 14.7486 5.37112 15.8272 6.50685 16.5861C7.64257 17.345 8.97783 17.75 10.3438 17.75C12.0544 17.75 13.6269 17.1231 14.8381 16.0819L15.125 16.3794V17.2188L20.4375 22.5206L22.0206 20.9375L16.7188 15.625ZM10.3438 15.625C7.69813 15.625 5.5625 13.4894 5.5625 10.8438C5.5625 8.19813 7.69813 6.0625 10.3438 6.0625C12.9894 6.0625 15.125 8.19813 15.125 10.8438C15.125 13.4894 12.9894 15.625 10.3438 15.625Z" fill="white"/>
</svg>
