<svg width="22" height="22" viewBox="0 0 22 22" fill="none" xmlns="http://www.w3.org/2000/svg">
<rect x="1.04075" y="0.853249" width="20.0455" height="20.0455" rx="6.20455" stroke="#00FF00" stroke-width="0.954545"/>
<path d="M14.7045 16.3305C14.2626 16.3305 13.887 16.1635 13.5777 15.8294C13.2683 15.4953 13.1136 15.0896 13.1136 14.6123C13.1136 14.5551 13.1269 14.4214 13.1534 14.2114L9.42803 11.8632C9.28662 12.0064 9.12311 12.1187 8.9375 12.2C8.75189 12.2813 8.55303 12.3218 8.34091 12.3214C7.89899 12.3214 7.52336 12.1544 7.21402 11.8203C6.90467 11.4862 6.75 11.0805 6.75 10.6032C6.75 10.126 6.90467 9.72029 7.21402 9.3862C7.52336 9.05211 7.89899 8.88507 8.34091 8.88507C8.55303 8.88507 8.75189 8.92573 8.9375 9.00706C9.12311 9.08839 9.28662 9.20045 9.42803 9.34325L13.1534 6.99507C13.1357 6.92825 13.1248 6.86391 13.1205 6.80206C13.1163 6.7402 13.114 6.6709 13.1136 6.59416C13.1136 6.11689 13.2683 5.7112 13.5777 5.37711C13.887 5.04302 14.2626 4.87598 14.7045 4.87598C15.1465 4.87598 15.5221 5.04302 15.8314 5.37711C16.1408 5.7112 16.2955 6.11689 16.2955 6.59416C16.2955 7.07143 16.1408 7.47711 15.8314 7.8112C15.5221 8.14529 15.1465 8.31234 14.7045 8.31234C14.4924 8.31234 14.2936 8.27168 14.108 8.19035C13.9223 8.10902 13.7588 7.99696 13.6174 7.85416L9.89205 10.2023C9.90972 10.2692 9.92086 10.3337 9.92545 10.3959C9.93005 10.4582 9.93217 10.5273 9.93182 10.6032C9.93146 10.6792 9.92934 10.7485 9.92545 10.8111C9.92157 10.8738 9.91043 10.9381 9.89205 11.0042L13.6174 13.3523C13.7588 13.2092 13.9223 13.0971 14.108 13.0161C14.2936 12.9352 14.4924 12.8945 14.7045 12.8942C15.1465 12.8942 15.5221 13.0612 15.8314 13.3953C16.1408 13.7294 16.2955 14.1351 16.2955 14.6123C16.2955 15.0896 16.1408 15.4953 15.8314 15.8294C15.5221 16.1635 15.1465 16.3305 14.7045 16.3305ZM14.7045 15.1851C14.8548 15.1851 14.9808 15.1303 15.0827 15.0207C15.1845 14.9111 15.2352 14.775 15.2348 14.6123C15.2345 14.4497 15.1836 14.3138 15.0821 14.2046C14.9807 14.0954 14.8548 14.0404 14.7045 14.0396C14.5543 14.0388 14.4284 14.0938 14.327 14.2046C14.2255 14.3153 14.1746 14.4512 14.1742 14.6123C14.1739 14.7735 14.2248 14.9096 14.327 15.0207C14.4291 15.1318 14.555 15.1866 14.7045 15.1851ZM8.34091 11.176C8.49116 11.176 8.6172 11.121 8.71902 11.011C8.82083 10.9011 8.87157 10.7651 8.87121 10.6032C8.87086 10.4414 8.81995 10.3054 8.71848 10.1955C8.61702 10.0855 8.49116 10.0305 8.34091 10.0305C8.19066 10.0305 8.0648 10.0855 7.96333 10.1955C7.86187 10.3054 7.81096 10.4414 7.81061 10.6032C7.81025 10.7651 7.86116 10.9013 7.96333 11.0116C8.06551 11.1219 8.19136 11.1767 8.34091 11.176ZM14.7045 7.16689C14.8548 7.16689 14.9808 7.1119 15.0827 7.00194C15.1845 6.89198 15.2352 6.75605 15.2348 6.59416C15.2345 6.43227 15.1836 6.29634 15.0821 6.18638C14.9807 6.07641 14.8548 6.02143 14.7045 6.02143C14.5543 6.02143 14.4284 6.07641 14.327 6.18638C14.2255 6.29634 14.1746 6.43227 14.1742 6.59416C14.1739 6.75605 14.2248 6.89217 14.327 7.00251C14.4291 7.11286 14.555 7.16765 14.7045 7.16689Z" fill="#00FF00"/>
</svg>
