<svg width="13" height="16" viewBox="0 0 13 16" fill="none" xmlns="http://www.w3.org/2000/svg">
<path d="M10.6061 15.636C10.0168 15.636 9.51599 15.4133 9.10354 14.9678C8.69108 14.5224 8.48485 13.9815 8.48485 13.3451C8.48485 13.2687 8.50253 13.0906 8.53788 12.8106L3.57071 9.67964C3.38215 9.87055 3.16414 10.0202 2.91667 10.1287C2.66919 10.2371 2.40404 10.2911 2.12121 10.2906C1.53199 10.2906 1.03114 10.0678 0.618687 9.62237C0.206229 9.17692 0 8.63601 0 7.99964C0 7.36328 0.206229 6.82237 0.618687 6.37692C1.03114 5.93146 1.53199 5.70874 2.12121 5.70874C2.40404 5.70874 2.66919 5.76295 2.91667 5.87139C3.16414 5.97983 3.38215 6.12924 3.57071 6.31964L8.53788 3.18874C8.51431 3.09964 8.4997 3.01386 8.49404 2.93139C8.48838 2.84892 8.48532 2.75652 8.48485 2.65419C8.48485 2.01783 8.69108 1.47692 9.10354 1.03146C9.51599 0.586009 10.0168 0.363281 10.6061 0.363281C11.1953 0.363281 11.6961 0.586009 12.1086 1.03146C12.521 1.47692 12.7273 2.01783 12.7273 2.65419C12.7273 3.29055 12.521 3.83146 12.1086 4.27692C11.6961 4.72237 11.1953 4.9451 10.6061 4.9451C10.3232 4.9451 10.0581 4.89088 9.81061 4.78244C9.56313 4.67401 9.34512 4.52459 9.15657 4.33419L4.18939 7.4651C4.21296 7.55419 4.22781 7.64023 4.23394 7.72321C4.24007 7.80619 4.2429 7.89834 4.24242 7.99964C4.24195 8.10095 4.23912 8.19335 4.23394 8.27684C4.22875 8.36034 4.21391 8.44612 4.18939 8.53419L9.15657 11.6651C9.34512 11.4742 9.56313 11.3248 9.81061 11.2168C10.0581 11.1089 10.3232 11.0547 10.6061 11.0542C11.1953 11.0542 11.6961 11.2769 12.1086 11.7224C12.521 12.1678 12.7273 12.7087 12.7273 13.3451C12.7273 13.9815 12.521 14.5224 12.1086 14.9678C11.6961 15.4133 11.1953 15.636 10.6061 15.636ZM10.6061 14.1087C10.8064 14.1087 10.9744 14.0357 11.1102 13.8896C11.246 13.7435 11.3136 13.562 11.3131 13.3451C11.3127 13.1282 11.2448 12.947 11.1095 12.8014C10.9742 12.6558 10.8064 12.5825 10.6061 12.5815C10.4057 12.5804 10.2379 12.6538 10.1026 12.8014C9.96734 12.949 9.89946 13.1303 9.89899 13.3451C9.89852 13.5599 9.9664 13.7414 10.1026 13.8896C10.2389 14.0377 10.4067 14.1108 10.6061 14.1087ZM2.12121 8.76328C2.32155 8.76328 2.4896 8.68997 2.62535 8.54335C2.76111 8.39674 2.82875 8.2155 2.82828 7.99964C2.82781 7.78379 2.75993 7.60255 2.62465 7.45594C2.48936 7.30932 2.32155 7.23601 2.12121 7.23601C1.92088 7.23601 1.75306 7.30932 1.61778 7.45594C1.48249 7.60255 1.41461 7.78379 1.41414 7.99964C1.41367 8.2155 1.48155 8.39699 1.61778 8.54412C1.75401 8.69125 1.92182 8.7643 2.12121 8.76328ZM10.6061 3.41783C10.8064 3.41783 10.9744 3.34452 11.1102 3.1979C11.246 3.05128 11.3136 2.87004 11.3131 2.65419C11.3127 2.43834 11.2448 2.2571 11.1095 2.11048C10.9742 1.96386 10.8064 1.89055 10.6061 1.89055C10.4057 1.89055 10.2379 1.96386 10.1026 2.11048C9.96734 2.2571 9.89946 2.43834 9.89899 2.65419C9.89852 2.87004 9.9664 3.05154 10.1026 3.19866C10.2389 3.34579 10.4067 3.41884 10.6061 3.41783Z" fill="fillCurrent"/>
</svg>
