<svg width="17" height="17" viewBox="0 0 17 17" fill="none" xmlns="http://www.w3.org/2000/svg">
<g clip-path="url(#clip0_156_1092)">
<path d="M6.42754 5.56929C6.42757 5.37041 6.50659 5.17969 6.64721 5.03907C6.78783 4.89844 6.97855 4.81943 7.17743 4.8194L11.9504 4.8194C12.1493 4.81943 12.34 4.89844 12.4806 5.03907C12.6212 5.17969 12.7003 5.37041 12.7003 5.56929V10.3423C12.6969 10.5389 12.6164 10.7263 12.4761 10.8641C12.3358 11.002 12.1471 11.0792 11.9504 11.0792C11.7537 11.0792 11.565 11.002 11.4247 10.8641C11.2844 10.7263 11.2039 10.5389 11.2005 10.3423L11.1549 7.42544L6.11677 12.4636C5.97611 12.6042 5.78535 12.6832 5.58644 12.6832C5.38752 12.6832 5.19676 12.6042 5.05611 12.4636C4.91545 12.3229 4.83644 12.1322 4.83644 11.9332C4.83644 11.7343 4.91545 11.5436 5.05611 11.4029L10.0942 6.36478L7.17743 6.31917C6.97855 6.31914 6.78783 6.24013 6.64721 6.0995C6.50659 5.95888 6.42757 5.76816 6.42754 5.56929Z" fill="white"/>
</g>
<defs>
<clipPath id="clip0_156_1092">
<rect width="11.25" height="11.25" fill="white" transform="translate(0.813477 8.75098) rotate(-45)"/>
</clipPath>
</defs>
</svg>
