<svg width="20" height="20" viewBox="0 0 20 20" fill="none" xmlns="http://www.w3.org/2000/svg">
<path d="M10.4916 10.8337L8.57496 12.7421C8.49685 12.8195 8.43486 12.9117 8.39255 13.0133C8.35024 13.1148 8.32846 13.2237 8.32846 13.3337C8.32846 13.4438 8.35024 13.5527 8.39255 13.6542C8.43486 13.7558 8.49685 13.8479 8.57496 13.9254C8.65243 14.0035 8.7446 14.0655 8.84615 14.1078C8.94769 14.1501 9.05662 14.1719 9.16663 14.1719C9.27664 14.1719 9.38556 14.1501 9.48711 14.1078C9.58866 14.0655 9.68082 14.0035 9.75829 13.9254L13.0916 10.5921C13.1675 10.5128 13.227 10.4194 13.2666 10.3171C13.35 10.1142 13.35 9.88663 13.2666 9.68374C13.227 9.58145 13.1675 9.488 13.0916 9.40874L9.75829 6.07541C9.68059 5.99771 9.58835 5.93608 9.48683 5.89403C9.38532 5.85198 9.27651 5.83033 9.16663 5.83033C9.05674 5.83033 8.94794 5.85198 8.84642 5.89403C8.7449 5.93608 8.65266 5.99771 8.57496 6.07541C8.49726 6.15311 8.43563 6.24535 8.39358 6.34687C8.35153 6.44839 8.32988 6.55719 8.32988 6.66708C8.32988 6.77696 8.35153 6.88577 8.39358 6.98728C8.43563 7.0888 8.49726 7.18104 8.57496 7.25874L10.4916 9.16708H2.49996C2.27895 9.16708 2.06698 9.25487 1.9107 9.41115C1.75442 9.56743 1.66663 9.7794 1.66663 10.0004C1.66663 10.2214 1.75442 10.4334 1.9107 10.5897C2.06698 10.7459 2.27895 10.8337 2.49996 10.8337H10.4916ZM9.99996 1.66708C8.44254 1.66012 6.91433 2.08975 5.58868 2.90723C4.26304 3.72472 3.193 4.89733 2.49996 6.29208C2.4005 6.49099 2.38414 6.72126 2.45446 6.93224C2.52479 7.14322 2.67605 7.31762 2.87496 7.41708C3.07387 7.51653 3.30415 7.5329 3.51512 7.46257C3.7261 7.39224 3.9005 7.24099 3.99996 7.04208C4.52678 5.97818 5.32815 5.07426 6.32125 4.42373C7.31435 3.77321 8.46314 3.39967 9.64892 3.34174C10.8347 3.2838 12.0144 3.54356 13.0662 4.09417C14.118 4.64478 15.0037 5.46627 15.6317 6.47374C16.2598 7.48121 16.6074 8.63811 16.6386 9.8249C16.6699 11.0117 16.3837 12.1853 15.8096 13.2244C15.2354 14.2636 14.3942 15.1305 13.3729 15.7358C12.3516 16.341 11.1871 16.6625 9.99996 16.6671C8.75736 16.6725 7.53842 16.3274 6.48304 15.6714C5.42765 15.0155 4.57859 14.0753 4.03329 12.9587C3.93384 12.7598 3.75944 12.6086 3.54846 12.5382C3.33748 12.4679 3.10721 12.4843 2.90829 12.5837C2.70938 12.6832 2.55812 12.8576 2.4878 13.0686C2.41747 13.2796 2.43384 13.5098 2.53329 13.7087C3.19398 15.0383 4.19789 16.1673 5.44118 16.9788C6.68448 17.7903 8.122 18.2549 9.60506 18.3246C11.0881 18.3942 12.5629 18.0664 13.8767 17.375C15.1906 16.6836 16.2959 15.6537 17.0783 14.3919C17.8608 13.1301 18.2919 11.6822 18.327 10.1979C18.3622 8.71363 18.0002 7.2469 17.2785 5.94944C16.5568 4.65197 15.5015 3.57088 14.2218 2.818C12.9422 2.06511 11.4847 1.66777 9.99996 1.66708Z" fill="#00FF00"/>
</svg>
