<svg width="28" height="12" viewBox="0 0 28 12" fill="none" xmlns="http://www.w3.org/2000/svg">
<path fill="currentColor" d="M27.5 7.5H28V7V5.3125V4.8125H27.5H12.6257C12.5089 4.41284 12.3384 4.03667 12.1143 3.68557C11.8241 3.23086 11.4781 2.83528 11.076 2.50184C10.6699 2.16511 10.2109 1.90418 9.70236 1.71836C9.18872 1.53068 8.6515 1.4375 8.09375 1.4375C7.54373 1.4375 7.00767 1.53103 6.48801 1.71732C5.97058 1.90281 5.50594 2.1638 5.09831 2.50184C4.69456 2.83666 4.35149 3.23439 4.06911 3.69204C3.85342 4.04161 3.68608 4.41556 3.56667 4.8125H0.5H0V5.3125V7V7.5H0.5H3.56176C3.67864 7.89966 3.84906 8.27583 4.07317 8.62693C4.36341 9.08164 4.70941 9.47722 5.1115 9.81066C5.51755 10.1474 5.97658 10.4083 6.48514 10.5941C6.99878 10.7818 7.536 10.875 8.09375 10.875C8.64377 10.875 9.17983 10.7815 9.69949 10.5952C10.2169 10.4097 10.6816 10.1487 11.0892 9.81066C11.4929 9.47584 11.836 9.07811 12.1184 8.62046C12.3341 8.27089 12.5014 7.89694 12.6208 7.5H27.5ZM8.88556 8.03017C8.6433 8.134 8.38108 8.1875 8.09375 8.1875C7.80642 8.1875 7.5442 8.134 7.30194 8.03017C7.05067 7.92249 6.83627 7.7776 6.65433 7.59567C6.4724 7.41373 6.32751 7.19933 6.21983 6.94806C6.116 6.7058 6.0625 6.44358 6.0625 6.15625C6.0625 5.86892 6.116 5.6067 6.21983 5.36444C6.32751 5.11317 6.4724 4.89877 6.65433 4.71683C6.83627 4.5349 7.05067 4.39001 7.30194 4.28233C7.5442 4.1785 7.80642 4.125 8.09375 4.125C8.38108 4.125 8.6433 4.1785 8.88556 4.28233C9.13683 4.39001 9.35123 4.5349 9.53316 4.71683C9.7151 4.89877 9.85999 5.11317 9.96767 5.36444C10.0715 5.6067 10.125 5.86892 10.125 6.15625C10.125 6.44358 10.0715 6.7058 9.96767 6.94806C9.85999 7.19933 9.7151 7.41373 9.53316 7.59567C9.35123 7.7776 9.13683 7.92249 8.88556 8.03017Z" fill="white" stroke="black"/>
</svg>
