<svg width="74" height="74" viewBox="0 0 74 74" fill="none" xmlns="http://www.w3.org/2000/svg">
<path fill-rule="evenodd" clip-rule="evenodd" d="M37 0C57.4345 0 74 16.5655 74 37C74 57.4345 57.4345 74 37 74C16.5655 74 0 57.4345 0 37C0 16.5655 16.5655 0 37 0ZM32.7076 51.25V22.75C32.7067 22.4614 32.6272 22.1786 32.4775 21.9319C32.3278 21.6852 32.1136 21.484 31.8581 21.35C31.6026 21.216 31.3153 21.1542 31.0273 21.1712C30.7392 21.1883 30.4613 21.2836 30.2234 21.4469L9.64006 35.6969C8.78665 36.2875 8.78665 37.7093 9.64006 38.3015L30.2234 52.5515C30.4608 52.7164 30.7389 52.8132 31.0274 52.8312C31.3159 52.8492 31.6039 52.7877 31.8599 52.6536C32.116 52.5194 32.3304 52.3177 32.4799 52.0702C32.6293 51.8228 32.7081 51.5391 32.7076 51.25ZM38.9169 22.75V51.25C38.9164 51.5391 38.9952 51.8228 39.1446 52.0702C39.2941 52.3177 39.5085 52.5194 39.7646 52.6536C40.0206 52.7877 40.3086 52.8492 40.5971 52.8312C40.8856 52.8132 41.1637 52.7164 41.4011 52.5515L61.9844 38.3015C62.8379 37.7093 62.8379 36.2875 61.9844 35.6969L41.4011 21.4469C41.1632 21.2836 40.8853 21.1883 40.5972 21.1712C40.3092 21.1542 40.0219 21.216 39.7664 21.35C39.5109 21.484 39.2967 21.6852 39.147 21.9319C38.9974 22.1786 38.9178 22.4614 38.9169 22.75Z" fill="white"/>
</svg>
