<svg width="23" height="22" viewBox="0 0 23 22" fill="none" xmlns="http://www.w3.org/2000/svg">
<path d="M16.9999 11.9901V10.1963H20.5876V11.9901H16.9999ZM18.0762 18.2685L15.2061 16.1159L16.2824 14.6809L19.1525 16.8334L18.0762 18.2685ZM16.2824 7.5056L15.2061 6.07055L18.0762 3.91797L19.1525 5.35302L16.2824 7.5056ZM5.34014 17.3716V13.7839H4.44323C3.94993 13.7839 3.52779 13.6085 3.1768 13.2575C2.82581 12.9065 2.65001 12.484 2.64941 11.9901V10.1963C2.64941 9.70302 2.82521 9.28088 3.1768 8.92989C3.52838 8.5789 3.95053 8.4031 4.44323 8.4025H8.03086L12.5154 5.71178V16.4747L8.03086 13.7839H7.13395V17.3716H5.34014ZM10.7216 13.2906V8.8958L8.52416 10.1963H4.44323V11.9901H8.52416L10.7216 13.2906ZM13.4123 14.0979V8.08859C13.8159 8.44735 14.1412 8.88474 14.3881 9.40076C14.6351 9.91678 14.7583 10.4809 14.7577 11.0932C14.7571 11.7055 14.6336 12.27 14.3872 12.7866C14.1409 13.3032 13.8159 13.7403 13.4123 14.0979Z" fill="#00FF00"/>
</svg>
