<svg width="21" height="21" viewBox="0 0 21 21" fill="none" xmlns="http://www.w3.org/2000/svg">
<path fill="currentColor" d="M10.5 0.75C8.57164 0.75 6.68657 1.32183 5.08319 2.39317C3.47982 3.46452 2.23013 4.98726 1.49218 6.76884C0.754225 8.55042 0.561142 10.5108 0.937348 12.4021C1.31355 14.2934 2.24215 16.0307 3.60571 17.3943C4.96928 18.7579 6.70656 19.6865 8.59787 20.0627C10.4892 20.4389 12.4496 20.2458 14.2312 19.5078C16.0127 18.7699 17.5355 17.5202 18.6068 15.9168C19.6782 14.3134 20.25 12.4284 20.25 10.5C20.2473 7.91498 19.2192 5.43661 17.3913 3.60872C15.5634 1.78084 13.085 0.75273 10.5 0.75ZM18.7331 9.98063C16.0763 11.8556 14.0859 11.3569 11.9953 10.3922C13.8759 9.06188 15.6384 7.3725 15.7013 4.10063C16.5853 4.81816 17.3112 5.71108 17.833 6.7231C18.3548 7.73511 18.6613 8.84427 18.7331 9.98063ZM14.1666 3.11156C14.46 6.34781 13.0313 7.8225 11.1563 9.15094C10.9453 6.85594 10.365 4.48219 7.55907 2.79281C8.62296 2.38633 9.75957 2.20479 10.8972 2.25965C12.0347 2.31452 13.1486 2.60459 14.1684 3.11156H14.1666ZM5.93625 3.63094C8.88469 4.995 9.44907 6.96656 9.65907 9.25594C7.56563 8.29125 5.22 7.60688 2.35313 9.19219C2.53529 8.06847 2.94757 6.99447 3.56414 6.03751C4.18071 5.08055 4.98829 4.26125 5.93625 3.63094ZM2.26688 11.0194C4.92375 9.14437 6.91407 9.64313 9.00469 10.6078C7.12501 11.9381 5.36157 13.6275 5.29875 16.8994C4.41466 16.1818 3.68883 15.2889 3.16701 14.2769C2.64518 13.2649 2.3387 12.1557 2.26688 11.0194ZM6.83344 17.8884C6.54 14.6522 7.96875 13.1775 9.84375 11.8491C10.0547 14.1441 10.635 16.5178 13.4409 18.2072C12.377 18.6137 11.2404 18.7952 10.1029 18.7403C8.96527 18.6855 7.85141 18.3954 6.83157 17.8884H6.83344ZM15.0638 17.3691C12.1153 16.005 11.5509 14.0334 11.3409 11.7441C12.5334 12.2934 13.8075 12.7519 15.2128 12.7519C16.275 12.7519 17.4122 12.4894 18.6469 11.8069C18.4647 12.9307 18.0525 14.0049 17.4359 14.962C16.8193 15.9191 16.0118 16.7386 15.0638 17.3691Z" fill="white"/>
</svg>
