<svg width="27" height="27" viewBox="0 0 27 27" fill="none" xmlns="http://www.w3.org/2000/svg">
<mask id="path-1-inside-1_150_1146" fill="white">
<path fill-rule="evenodd" fill="currentColor" clip-rule="evenodd" d="M21 3.1875H13.5C12.7541 3.1875 12.0387 3.48382 11.5113 4.01126C10.9838 4.53871 10.6875 5.25408 10.6875 6V7.875H13.5C14.9918 7.875 16.4226 8.46763 17.4775 9.52252C18.5324 10.5774 19.125 12.0082 19.125 13.5V16.3125H21C21.7459 16.3125 22.4613 16.0162 22.9887 15.4887C23.5162 14.9613 23.8125 14.2459 23.8125 13.5V6C23.8125 5.25408 23.5162 4.53871 22.9887 4.01126C22.4613 3.48382 21.7459 3.1875 21 3.1875ZM19.125 19.125H21C22.4918 19.125 23.9226 18.5324 24.9775 17.4775C26.0324 16.4226 26.625 14.9918 26.625 13.5V6C26.625 4.50816 26.0324 3.07742 24.9775 2.02252C23.9226 0.967632 22.4918 0.375 21 0.375H13.5C12.0082 0.375 10.5774 0.967632 9.52252 2.02252C8.46763 3.07742 7.875 4.50816 7.875 6V7.875H6C4.50816 7.875 3.07742 8.46763 2.02252 9.52252C0.967632 10.5774 0.375 12.0082 0.375 13.5V21C0.375 22.4918 0.967632 23.9226 2.02252 24.9775C3.07742 26.0324 4.50816 26.625 6 26.625H13.5C14.9918 26.625 16.4226 26.0324 17.4775 24.9775C18.5324 23.9226 19.125 22.4918 19.125 21V19.125ZM6 10.6875H13.5C14.2459 10.6875 14.9613 10.9838 15.4887 11.5113C16.0162 12.0387 16.3125 12.7541 16.3125 13.5V17.3269L15.2475 16.3519C14.7338 15.8827 14.0663 15.6176 13.3707 15.6066C12.6752 15.5955 11.9996 15.8393 11.4713 16.2919L8.24812 19.0537L7.11938 18.2063C6.6319 17.8411 6.04026 17.6417 5.4312 17.6373C4.82213 17.6329 4.22768 17.8238 3.735 18.1819L3.1875 18.5794V13.5C3.1875 12.7541 3.48382 12.0387 4.01126 11.5113C4.53871 10.9838 5.25408 10.6875 6 10.6875ZM3.34875 21.9394C3.54291 22.4873 3.90208 22.9616 4.37686 23.297C4.85163 23.6325 5.41868 23.8126 6 23.8125H13.5C14.2225 23.8124 14.9172 23.5342 15.4401 23.0357C15.963 22.5372 16.2741 21.8566 16.3088 21.135L13.35 18.4312C13.3432 18.4254 13.3346 18.4222 13.3256 18.4222C13.3167 18.4222 13.308 18.4254 13.3013 18.4312L9.22312 21.9263L8.36625 22.6594L7.46438 21.9844L5.43188 20.4581C5.42556 20.4537 5.41803 20.4513 5.41031 20.4513C5.40259 20.4513 5.39506 20.4537 5.38875 20.4581L3.34875 21.9394ZM9.03 14.3644C9.03 14.9382 8.80203 15.4886 8.39625 15.8944C7.99047 16.3002 7.44011 16.5281 6.86625 16.5281C6.29239 16.5281 5.74203 16.3002 5.33625 15.8944C4.93047 15.4886 4.7025 14.9382 4.7025 14.3644C4.71907 13.8018 4.9542 13.2678 5.358 12.8757C5.76179 12.4836 6.30248 12.2643 6.86531 12.2643C7.42815 12.2643 7.96883 12.4836 8.37263 12.8757C8.77643 13.2678 9.01156 13.8018 9.02812 14.3644"/>
</mask>
<path fill-rule="evenodd" fill="currentColor" clip-rule="evenodd" d="M21 3.1875H13.5C12.7541 3.1875 12.0387 3.48382 11.5113 4.01126C10.9838 4.53871 10.6875 5.25408 10.6875 6V7.875H13.5C14.9918 7.875 16.4226 8.46763 17.4775 9.52252C18.5324 10.5774 19.125 12.0082 19.125 13.5V16.3125H21C21.7459 16.3125 22.4613 16.0162 22.9887 15.4887C23.5162 14.9613 23.8125 14.2459 23.8125 13.5V6C23.8125 5.25408 23.5162 4.53871 22.9887 4.01126C22.4613 3.48382 21.7459 3.1875 21 3.1875ZM19.125 19.125H21C22.4918 19.125 23.9226 18.5324 24.9775 17.4775C26.0324 16.4226 26.625 14.9918 26.625 13.5V6C26.625 4.50816 26.0324 3.07742 24.9775 2.02252C23.9226 0.967632 22.4918 0.375 21 0.375H13.5C12.0082 0.375 10.5774 0.967632 9.52252 2.02252C8.46763 3.07742 7.875 4.50816 7.875 6V7.875H6C4.50816 7.875 3.07742 8.46763 2.02252 9.52252C0.967632 10.5774 0.375 12.0082 0.375 13.5V21C0.375 22.4918 0.967632 23.9226 2.02252 24.9775C3.07742 26.0324 4.50816 26.625 6 26.625H13.5C14.9918 26.625 16.4226 26.0324 17.4775 24.9775C18.5324 23.9226 19.125 22.4918 19.125 21V19.125ZM6 10.6875H13.5C14.2459 10.6875 14.9613 10.9838 15.4887 11.5113C16.0162 12.0387 16.3125 12.7541 16.3125 13.5V17.3269L15.2475 16.3519C14.7338 15.8827 14.0663 15.6176 13.3707 15.6066C12.6752 15.5955 11.9996 15.8393 11.4713 16.2919L8.24812 19.0537L7.11938 18.2063C6.6319 17.8411 6.04026 17.6417 5.4312 17.6373C4.82213 17.6329 4.22768 17.8238 3.735 18.1819L3.1875 18.5794V13.5C3.1875 12.7541 3.48382 12.0387 4.01126 11.5113C4.53871 10.9838 5.25408 10.6875 6 10.6875ZM3.34875 21.9394C3.54291 22.4873 3.90208 22.9616 4.37686 23.297C4.85163 23.6325 5.41868 23.8126 6 23.8125H13.5C14.2225 23.8124 14.9172 23.5342 15.4401 23.0357C15.963 22.5372 16.2741 21.8566 16.3088 21.135L13.35 18.4312C13.3432 18.4254 13.3346 18.4222 13.3256 18.4222C13.3167 18.4222 13.308 18.4254 13.3013 18.4312L9.22312 21.9263L8.36625 22.6594L7.46438 21.9844L5.43188 20.4581C5.42556 20.4537 5.41803 20.4513 5.41031 20.4513C5.40259 20.4513 5.39506 20.4537 5.38875 20.4581L3.34875 21.9394ZM9.03 14.3644C9.03 14.9382 8.80203 15.4886 8.39625 15.8944C7.99047 16.3002 7.44011 16.5281 6.86625 16.5281C6.29239 16.5281 5.74203 16.3002 5.33625 15.8944C4.93047 15.4886 4.7025 14.9382 4.7025 14.3644C4.71907 13.8018 4.9542 13.2678 5.358 12.8757C5.76179 12.4836 6.30248 12.2643 6.86531 12.2643C7.42815 12.2643 7.96883 12.4836 8.37263 12.8757C8.77643 13.2678 9.01156 13.8018 9.02812 14.3644" fill="white"/>
<path fill="currentColor" d="M10.6875 7.875H10.1875V8.375H10.6875V7.875ZM19.125 16.3125H18.625V16.8125H19.125V16.3125ZM21 16.3125V16.8125V16.3125ZM23.8125 13.5H24.3125H23.8125ZM23.8125 6H24.3125H23.8125ZM19.125 19.125V18.625H18.625V19.125H19.125ZM13.5 0.375V-0.125V0.375ZM7.875 7.875V8.375H8.375V7.875H7.875ZM0.375 13.5H-0.125H0.375ZM0.375 21H-0.125H0.375ZM6 10.6875V10.1875V10.6875ZM16.3125 13.5H16.8125H16.3125ZM16.3125 17.3269L15.9749 17.6957L16.8125 18.4625V17.3269H16.3125ZM15.2475 16.3519L15.5851 15.9831L15.5847 15.9827L15.2475 16.3519ZM11.4713 16.2919L11.146 15.9122L11.1459 15.9122L11.4713 16.2919ZM8.24812 19.0537L7.94791 19.4536L8.26878 19.6945L8.57347 19.4334L8.24812 19.0537ZM7.11938 18.2063L7.41959 17.8064L7.41915 17.8061L7.11938 18.2063ZM3.735 18.1819L4.02876 18.5865L4.02898 18.5863L3.735 18.1819ZM3.1875 18.5794H2.6875V19.5603L3.48126 18.984L3.1875 18.5794ZM3.1875 13.5H2.6875H3.1875ZM3.34875 21.9394L3.05497 21.5348L2.75269 21.7543L2.87746 22.1064L3.34875 21.9394ZM6 23.8125V23.3125H5.99995L6 23.8125ZM13.5 23.8125V24.3125H13.5001L13.5 23.8125ZM16.3088 21.135L16.8082 21.159L16.8195 20.9244L16.646 20.7659L16.3088 21.135ZM13.35 18.4312L13.6873 18.0621L13.6812 18.0566L13.675 18.0513L13.35 18.4312ZM13.3256 18.4222V18.9222V18.4222ZM13.3013 18.4312L12.9762 18.0513L12.9759 18.0516L13.3013 18.4312ZM9.22312 21.9263L9.54818 22.3062L9.54849 22.3059L9.22312 21.9263ZM8.36625 22.6594L8.06665 23.0597L8.38713 23.2995L8.6913 23.0393L8.36625 22.6594ZM7.46438 21.9844L7.16414 22.3842L7.16477 22.3847L7.46438 21.9844ZM5.43188 20.4581L5.73211 20.0583L5.72582 20.0536L5.71938 20.049L5.43188 20.4581ZM5.41031 20.4513V19.9513V20.4513ZM5.38875 20.4581L5.10122 20.049L5.09497 20.0535L5.38875 20.4581ZM4.7025 14.3644L4.20272 14.3497L4.2025 14.357V14.3644H4.7025ZM21 2.6875H13.5V3.6875H21V2.6875ZM13.5 2.6875C12.6215 2.6875 11.7789 3.03649 11.1577 3.65771L11.8648 4.36482C12.2985 3.93114 12.8867 3.6875 13.5 3.6875V2.6875ZM11.1577 3.65771C10.5365 4.27892 10.1875 5.12147 10.1875 6H11.1875C11.1875 5.38669 11.4311 4.79849 11.8648 4.36482L11.1577 3.65771ZM10.1875 6V7.875H11.1875V6H10.1875ZM10.6875 8.375H13.5V7.375H10.6875V8.375ZM13.5 8.375C14.8592 8.375 16.1628 8.91495 17.1239 9.87608L17.831 9.16897C16.6824 8.02031 15.1245 7.375 13.5 7.375V8.375ZM17.1239 9.87608C18.085 10.8372 18.625 12.1408 18.625 13.5H19.625C19.625 11.8755 18.9797 10.3176 17.831 9.16897L17.1239 9.87608ZM18.625 13.5V16.3125H19.625V13.5H18.625ZM19.125 16.8125H21V15.8125H19.125V16.8125ZM21 16.8125C21.8785 16.8125 22.7211 16.4635 23.3423 15.8423L22.6352 15.1352C22.2015 15.5689 21.6133 15.8125 21 15.8125V16.8125ZM23.3423 15.8423C23.9635 15.2211 24.3125 14.3785 24.3125 13.5H23.3125C23.3125 14.1133 23.0689 14.7015 22.6352 15.1352L23.3423 15.8423ZM24.3125 13.5V6H23.3125V13.5H24.3125ZM24.3125 6C24.3125 5.12147 23.9635 4.27892 23.3423 3.65771L22.6352 4.36482C23.0689 4.79849 23.3125 5.38669 23.3125 6H24.3125ZM23.3423 3.65771C22.7211 3.03649 21.8785 2.6875 21 2.6875V3.6875C21.6133 3.6875 22.2015 3.93114 22.6352 4.36482L23.3423 3.65771ZM19.125 19.625H21V18.625H19.125V19.625ZM21 19.625C22.6245 19.625 24.1824 18.9797 25.331 17.831L24.6239 17.1239C23.6628 18.085 22.3592 18.625 21 18.625V19.625ZM25.331 17.831C26.4797 16.6824 27.125 15.1245 27.125 13.5H26.125C26.125 14.8592 25.585 16.1628 24.6239 17.1239L25.331 17.831ZM27.125 13.5V6H26.125V13.5H27.125ZM27.125 6C27.125 4.37555 26.4797 2.81763 25.331 1.66897L24.6239 2.37608C25.585 3.3372 26.125 4.64077 26.125 6H27.125ZM25.331 1.66897C24.1824 0.520311 22.6245 -0.125 21 -0.125V0.875C22.3592 0.875 23.6628 1.41495 24.6239 2.37608L25.331 1.66897ZM21 -0.125H13.5V0.875H21V-0.125ZM13.5 -0.125C11.8755 -0.125 10.3176 0.520311 9.16897 1.66897L9.87608 2.37608C10.8372 1.41495 12.1408 0.875 13.5 0.875V-0.125ZM9.16897 1.66897C8.02031 2.81763 7.375 4.37555 7.375 6H8.375C8.375 4.64077 8.91495 3.3372 9.87608 2.37608L9.16897 1.66897ZM7.375 6V7.875H8.375V6H7.375ZM7.875 7.375H6V8.375H7.875V7.375ZM6 7.375C4.37555 7.375 2.81763 8.02031 1.66897 9.16897L2.37608 9.87608C3.3372 8.91495 4.64077 8.375 6 8.375V7.375ZM1.66897 9.16897C0.520311 10.3176 -0.125 11.8755 -0.125 13.5H0.875C0.875 12.1408 1.41495 10.8372 2.37608 9.87608L1.66897 9.16897ZM-0.125 13.5V21H0.875V13.5H-0.125ZM-0.125 21C-0.125 22.6245 0.520311 24.1824 1.66897 25.331L2.37608 24.6239C1.41495 23.6628 0.875 22.3592 0.875 21H-0.125ZM1.66897 25.331C2.81763 26.4797 4.37555 27.125 6 27.125V26.125C4.64077 26.125 3.3372 25.585 2.37608 24.6239L1.66897 25.331ZM6 27.125H13.5V26.125H6V27.125ZM13.5 27.125C15.1245 27.125 16.6824 26.4797 17.831 25.331L17.1239 24.6239C16.1628 25.585 14.8592 26.125 13.5 26.125V27.125ZM17.831 25.331C18.9797 24.1824 19.625 22.6245 19.625 21H18.625C18.625 22.3592 18.085 23.6628 17.1239 24.6239L17.831 25.331ZM19.625 21V19.125H18.625V21H19.625ZM6 11.1875H13.5V10.1875H6V11.1875ZM13.5 11.1875C14.1133 11.1875 14.7015 11.4311 15.1352 11.8648L15.8423 11.1577C15.2211 10.5365 14.3785 10.1875 13.5 10.1875V11.1875ZM15.1352 11.8648C15.5689 12.2985 15.8125 12.8867 15.8125 13.5H16.8125C16.8125 12.6215 16.4635 11.7789 15.8423 11.1577L15.1352 11.8648ZM15.8125 13.5V17.3269H16.8125V13.5H15.8125ZM16.6501 16.9581L15.5851 15.9831L14.9099 16.7207L15.9749 17.6957L16.6501 16.9581ZM15.5847 15.9827C14.9809 15.4312 14.1963 15.1196 13.3787 15.1066L13.3628 16.1065C13.9363 16.1156 14.4868 16.3342 14.9103 16.7211L15.5847 15.9827ZM13.3787 15.1066C12.5611 15.0937 11.7669 15.3802 11.146 15.9122L11.7966 16.6716C12.2322 16.2984 12.7892 16.0974 13.3628 16.1065L13.3787 15.1066ZM11.1459 15.9122L7.92278 18.6741L8.57347 19.4334L11.7966 16.6716L11.1459 15.9122ZM8.54834 18.6539L7.41959 17.8064L6.81916 18.6061L7.94791 19.4536L8.54834 18.6539ZM7.41915 17.8061C6.84615 17.3768 6.15072 17.1425 5.4348 17.1373L5.4276 18.1373C5.92981 18.1409 6.41765 18.3053 6.8196 18.6064L7.41915 17.8061ZM5.4348 17.1373C4.71888 17.1322 4.02014 17.3565 3.44102 17.7774L4.02898 18.5863C4.43522 18.291 4.92538 18.1337 5.4276 18.1373L5.4348 17.1373ZM3.44124 17.7773L2.89374 18.1748L3.48126 18.984L4.02876 18.5865L3.44124 17.7773ZM3.6875 18.5794V13.5H2.6875V18.5794H3.6875ZM3.6875 13.5C3.6875 12.8867 3.93114 12.2985 4.36482 11.8648L3.65771 11.1577C3.03649 11.7789 2.6875 12.6215 2.6875 13.5H3.6875ZM4.36482 11.8648C4.79849 11.4311 5.38669 11.1875 6 11.1875V10.1875C5.12147 10.1875 4.27892 10.5365 3.65771 11.1577L4.36482 11.8648ZM2.87746 22.1064C3.10614 22.7517 3.52917 23.3103 4.08835 23.7054L4.66537 22.8887C4.275 22.6129 3.97968 22.2229 3.82004 21.7724L2.87746 22.1064ZM4.08835 23.7054C4.64753 24.1005 5.31539 24.3126 6.00005 24.3125L5.99995 23.3125C5.52198 23.3125 5.05574 23.1645 4.66537 22.8887L4.08835 23.7054ZM6 24.3125H13.5V23.3125H6V24.3125ZM13.5001 24.3125C14.351 24.3123 15.1692 23.9848 15.7851 23.3976L15.0951 22.6738C14.6651 23.0837 14.0939 23.3124 13.4999 23.3125L13.5001 24.3125ZM15.7851 23.3976C16.401 22.8105 16.7673 22.0089 16.8082 21.159L15.8093 21.111C15.7808 21.7043 15.5251 22.264 15.0951 22.6738L15.7851 23.3976ZM16.646 20.7659L13.6873 18.0621L13.0127 18.8004L15.9715 21.5041L16.646 20.7659ZM13.675 18.0513C13.5777 17.968 13.4538 17.9222 13.3256 17.9222V18.9222C13.2154 18.9222 13.1088 18.8829 13.025 18.8112L13.675 18.0513ZM13.3256 17.9222C13.1975 17.9222 13.0736 17.968 12.9762 18.0513L13.6263 18.8112C13.5425 18.8829 13.4359 18.9222 13.3256 18.9222V17.9222ZM12.9759 18.0516L8.89776 21.5466L9.54849 22.3059L13.6266 18.8109L12.9759 18.0516ZM8.89807 21.5463L8.0412 22.2795L8.6913 23.0393L9.54818 22.3062L8.89807 21.5463ZM8.66585 22.2591L7.76398 21.5841L7.16477 22.3847L8.06665 23.0597L8.66585 22.2591ZM7.76461 21.5846L5.73211 20.0583L5.13164 20.8579L7.16414 22.3842L7.76461 21.5846ZM5.71938 20.049C5.62889 19.9855 5.52097 19.9513 5.41031 19.9513V20.9513C5.3151 20.9513 5.22223 20.9219 5.14437 20.8672L5.71938 20.049ZM5.41031 19.9513C5.29965 19.9513 5.19173 19.9855 5.10125 20.049L5.67625 20.8672C5.5984 20.9219 5.50554 20.9513 5.41031 20.9513V19.9513ZM5.09497 20.0535L3.05497 21.5348L3.64253 22.344L5.68253 20.8627L5.09497 20.0535ZM8.53 14.3644C8.53 14.8056 8.35471 15.2288 8.0427 15.5408L8.74981 16.2479C9.24936 15.7484 9.53 15.0708 9.53 14.3644H8.53ZM8.0427 15.5408C7.73069 15.8528 7.3075 16.0281 6.86625 16.0281V17.0281C7.57272 17.0281 8.25026 16.7475 8.74981 16.2479L8.0427 15.5408ZM6.86625 16.0281C6.425 16.0281 6.00181 15.8528 5.6898 15.5408L4.98269 16.2479C5.48224 16.7475 6.15978 17.0281 6.86625 17.0281V16.0281ZM5.6898 15.5408C5.37779 15.2288 5.2025 14.8056 5.2025 14.3644H4.2025C4.2025 15.0708 4.48314 15.7484 4.98269 16.2479L5.6898 15.5408ZM5.20228 14.3791C5.21502 13.9465 5.39582 13.5359 5.70631 13.2344L5.00968 12.517C4.51258 12.9997 4.22311 13.6571 4.20272 14.3497L5.20228 14.3791ZM5.70631 13.2344C6.0168 12.9329 6.43254 12.7643 6.86531 12.7643V11.7643C6.17242 11.7643 5.50679 12.0343 5.00968 12.517L5.70631 13.2344ZM6.86531 12.7643C7.29809 12.7643 7.71383 12.9329 8.02432 13.2344L8.72094 12.517C8.22383 12.0343 7.55821 11.7643 6.86531 11.7643V12.7643ZM8.02432 13.2344C8.33481 13.5359 8.5156 13.9465 8.52834 14.3791L9.52791 14.3497C9.50751 13.6571 9.21805 12.9997 8.72094 12.517L8.02432 13.2344Z" fill="black" mask="url(#path-1-inside-1_150_1146)"/>
</svg>
