<svg width="27" height="26" viewBox="0 0 27 26" fill="none" xmlns="http://www.w3.org/2000/svg">
<path d="M13.5 26C20.6797 26 26.5 20.1797 26.5 13C26.5 5.8203 20.6797 0 13.5 0C6.3203 0 0.5 5.8203 0.5 13C0.5 20.1797 6.3203 26 13.5 26Z" fill="#26A17B"/>
<path fill-rule="evenodd" clip-rule="evenodd" d="M15.062 14.1243V14.1226C14.9726 14.1291 14.512 14.1568 13.4841 14.1568C12.6635 14.1568 12.0858 14.1324 11.8827 14.1226V14.1251C8.7237 13.9861 6.36583 13.4361 6.36583 12.778C6.36583 12.1198 8.7237 11.5706 11.8827 11.4292V13.5775C12.0891 13.5921 12.6806 13.627 13.498 13.627C14.4786 13.627 14.9702 13.5864 15.062 13.5783V11.4308C18.2145 11.5714 20.5667 12.1215 20.5667 12.778C20.5667 13.4361 18.2145 13.9845 15.062 14.1243ZM15.062 11.2074V9.28502H19.4609V6.35352H7.48383V9.28502H11.8827V11.2066C8.3077 11.3707 5.61914 12.0792 5.61914 12.9275C5.61914 13.7757 8.3077 14.4834 11.8827 14.6483V20.8087H15.062V14.6467C18.6313 14.4826 21.3134 13.7749 21.3134 12.9275C21.3134 12.08 18.6313 11.3723 15.062 11.2074Z" fill="white"/>
</svg>
