<svg width="17" height="17" viewBox="0 0 17 17" fill="none" xmlns="http://www.w3.org/2000/svg">
<path fill-rule="evenodd" clip-rule="evenodd" d="M4.29276 9.76502C4.32249 9.77417 4.35281 9.78129 4.38351 9.78633C4.57802 10.2447 4.77144 10.7035 4.96376 11.1627C5.30957 11.9891 5.65813 12.8402 5.73445 13.085C5.83001 13.3861 5.93038 13.591 6.04038 13.7312C6.09745 13.8027 6.16276 13.866 6.23976 13.9141C6.28019 13.9386 6.32304 13.9589 6.36763 13.9746C6.58763 14.0571 6.78838 14.0227 6.9142 13.9808C6.98807 13.9557 7.05833 13.921 7.1232 13.8776L7.12663 13.8763L9.06951 12.6649L11.3142 14.385C11.3472 14.4102 11.3829 14.4315 11.4214 14.449C11.6909 14.5658 11.9522 14.6071 12.1983 14.5741C12.4431 14.5397 12.6376 14.4373 12.7827 14.3211C12.9491 14.1867 13.0819 14.0153 13.1704 13.8206L13.1766 13.8055L13.1787 13.8L13.1801 13.7972V13.7958L13.1808 13.7951C13.192 13.7653 13.2012 13.7348 13.2083 13.7037L15.257 3.37402C15.2627 3.34084 15.2659 3.3073 15.2666 3.27365C15.2666 2.97115 15.1525 2.68308 14.8851 2.50915C14.6554 2.35996 14.4004 2.35308 14.2388 2.36546C14.0656 2.37921 13.9047 2.42183 13.7968 2.45621C13.7364 2.47569 13.6768 2.49724 13.618 2.52083L13.6104 2.52427L2.11957 7.03152L2.1182 7.03221C2.07923 7.04628 2.04092 7.06211 2.00338 7.07965C1.91223 7.12054 1.82482 7.16931 1.74213 7.2254C1.58607 7.33196 1.22651 7.62483 1.2877 8.10883C1.33582 8.49383 1.59982 8.73102 1.76138 8.84515C1.84938 8.90771 1.93326 8.9524 1.99513 8.98196C2.02263 8.99571 2.08176 9.01908 2.1072 9.03008L2.11407 9.03215L4.29276 9.76502ZM14.0126 3.47302H14.0113L13.9934 3.48058L2.48876 7.99402L2.47088 8.0009L2.46401 8.00296C2.44295 8.0111 2.4223 8.02028 2.40213 8.03046C2.42136 8.04125 2.44109 8.05112 2.46126 8.06002L4.62138 8.7874C4.65952 8.80152 4.69634 8.81901 4.73138 8.83965L11.8656 4.66308L11.8724 4.65965C11.9003 4.64306 11.9287 4.62747 11.9577 4.6129C12.0072 4.58746 12.0863 4.55033 12.1756 4.52283C12.2375 4.50358 12.4211 4.44927 12.6191 4.51321C12.7243 4.54602 12.818 4.60791 12.8896 4.69172C12.9611 4.77553 13.0075 4.87786 13.0233 4.9869C13.0489 5.08229 13.0496 5.18265 13.0254 5.2784C12.9773 5.46746 12.8453 5.61458 12.7249 5.72733C12.6218 5.82358 11.2839 7.11333 9.96463 8.38658L8.1682 10.1191L7.84851 10.4285L11.8855 13.5236C11.94 13.5463 11.9992 13.5558 12.0581 13.5511C12.0877 13.547 12.1156 13.5346 12.1385 13.5153C12.1663 13.4918 12.1902 13.4639 12.2093 13.4328L12.2107 13.4321L14.1976 3.41321C14.1351 3.4286 14.0737 3.44835 14.014 3.47233L14.0126 3.47302ZM8.1957 11.9939L7.38995 11.3765L7.1947 12.6175L8.1957 11.9939ZM6.65088 10.1514L7.45182 9.37796L9.24826 7.64408L9.9172 6.99921L5.4347 9.6234L5.45876 9.67977C5.74146 10.3476 6.02105 11.0168 6.29751 11.6873L6.49207 10.4498C6.50983 10.335 6.56579 10.2304 6.65088 10.1514Z" fill="#00FF00"/>
</svg>
