<svg width="25" height="25" viewBox="0 0 25 25" fill="none" xmlns="http://www.w3.org/2000/svg">
<g clip-path="url(#clip0_252_3337)">
<path d="M12.125 0.25C8.94312 0.25 5.88875 1.51506 3.64062 3.76469C1.3902 6.01522 0.125644 9.06734 0.125 12.25C0.125 15.4313 1.39062 18.4857 3.64062 20.7353C5.88875 22.9849 8.94312 24.25 12.125 24.25C15.3069 24.25 18.3612 22.9849 20.6094 20.7353C22.8594 18.4857 24.125 15.4313 24.125 12.25C24.125 9.06869 22.8594 6.01431 20.6094 3.76469C18.3612 1.51506 15.3069 0.25 12.125 0.25Z" fill="url(#paint0_linear_252_3337)"/>
<path d="M5.55684 12.124C9.05559 10.6 11.3881 9.59527 12.5543 9.10977C15.8881 7.72359 16.58 7.48284 17.0318 7.47468C17.1312 7.47309 17.3525 7.49765 17.4968 7.61437C17.6168 7.71281 17.6506 7.84593 17.6675 7.9394C17.6825 8.03277 17.7031 8.24559 17.6862 8.41171C17.5062 10.3092 16.7243 14.9138 16.3268 17.0391C16.16 17.9384 15.8281 18.2399 15.5075 18.2693C14.81 18.3335 14.2812 17.8088 13.6062 17.3665C12.5506 16.6741 11.9543 16.2432 10.9287 15.5676C9.74372 14.7869 10.5125 14.3577 11.1875 13.6565C11.3637 13.4729 14.435 10.6801 14.4931 10.4268C14.5006 10.3951 14.5081 10.277 14.4368 10.2147C14.3675 10.1523 14.2643 10.1736 14.1893 10.1905C14.0825 10.2145 12.3968 11.3298 9.12684 13.5361C8.64872 13.865 8.21559 14.0253 7.82559 14.0168C7.39809 14.0076 6.57309 13.7746 5.95997 13.5755C5.20997 13.3311 4.61184 13.202 4.66434 12.787C4.69059 12.571 4.98872 12.35 5.55684 12.124Z" fill="white"/>
</g>
<defs>
<linearGradient id="paint0_linear_252_3337" x1="1200.13" y1="0.25" x2="1200.13" y2="2400.25" gradientUnits="userSpaceOnUse">
<stop stop-color="#2AABEE"/>
<stop offset="1" stop-color="#229ED9"/>
</linearGradient>
<clipPath id="clip0_252_3337">
<rect width="24" height="24" fill="white" transform="translate(0.125 0.25)"/>
</clipPath>
</defs>
</svg>
