<svg width="23" height="23" viewBox="0 0 23 23" fill="none" xmlns="http://www.w3.org/2000/svg">
<path d="M9.48937 5.13701H13.175C13.175 4.64827 12.9808 4.17955 12.6352 3.83396C12.2896 3.48836 11.8209 3.29421 11.3322 3.29421C10.8434 3.29421 10.3747 3.48836 10.0291 3.83396C9.68353 4.17955 9.48937 4.64827 9.48937 5.13701ZM8.10727 5.13701C8.10727 4.71351 8.19069 4.29416 8.35275 3.9029C8.51482 3.51163 8.75236 3.15612 9.05182 2.85666C9.35128 2.5572 9.7068 2.31966 10.0981 2.15759C10.4893 1.99552 10.9087 1.91211 11.3322 1.91211C11.7557 1.91211 12.175 1.99552 12.5663 2.15759C12.9576 2.31966 13.3131 2.5572 13.6125 2.85666C13.912 3.15612 14.1495 3.51163 14.3116 3.9029C14.4737 4.29416 14.5571 4.71351 14.5571 5.13701H19.8551C20.0384 5.13701 20.2142 5.20982 20.3438 5.33942C20.4734 5.46902 20.5462 5.64479 20.5462 5.82806C20.5462 6.01134 20.4734 6.18711 20.3438 6.31671C20.2142 6.44631 20.0384 6.51912 19.8551 6.51912H18.6389L17.5608 17.6782C17.4782 18.5332 17.0799 19.3268 16.4438 19.9042C15.8077 20.4815 14.9794 20.8012 14.1203 20.8008H8.54402C7.68514 20.8009 6.85702 20.4811 6.22112 19.9038C5.58521 19.3265 5.18711 18.5331 5.10443 17.6782L4.02546 6.51912H2.80921C2.62594 6.51912 2.45017 6.44631 2.32057 6.31671C2.19097 6.18711 2.11816 6.01134 2.11816 5.82806C2.11816 5.64479 2.19097 5.46902 2.32057 5.33942C2.45017 5.20982 2.62594 5.13701 2.80921 5.13701H8.10727ZM9.95007 9.51367C9.95007 9.33039 9.87727 9.15462 9.74767 9.02502C9.61807 8.89543 9.4423 8.82262 9.25902 8.82262C9.07575 8.82262 8.89997 8.89543 8.77038 9.02502C8.64078 9.15462 8.56797 9.33039 8.56797 9.51367V16.4242C8.56797 16.6075 8.64078 16.7832 8.77038 16.9128C8.89997 17.0424 9.07575 17.1152 9.25902 17.1152C9.4423 17.1152 9.61807 17.0424 9.74767 16.9128C9.87727 16.7832 9.95007 16.6075 9.95007 16.4242V9.51367ZM13.4053 8.82262C13.5886 8.82262 13.7644 8.89543 13.894 9.02502C14.0236 9.15462 14.0964 9.33039 14.0964 9.51367V16.4242C14.0964 16.6075 14.0236 16.7832 13.894 16.9128C13.7644 17.0424 13.5886 17.1152 13.4053 17.1152C13.2221 17.1152 13.0463 17.0424 12.9167 16.9128C12.7871 16.7832 12.7143 16.6075 12.7143 16.4242V9.51367C12.7143 9.33039 12.7871 9.15462 12.9167 9.02502C13.0463 8.89543 13.2221 8.82262 13.4053 8.82262ZM6.48008 17.5455C6.52978 18.0584 6.7687 18.5344 7.15028 18.8807C7.53185 19.227 8.02872 19.4188 8.54402 19.4187H14.1203C14.6356 19.4188 15.1325 19.227 15.5141 18.8807C15.8957 18.5344 16.1346 18.0584 16.1843 17.5455L17.2513 6.51912H5.41309L6.48008 17.5455Z" fill="black"/>
</svg>
