<svg width="23" height="23" viewBox="0 0 23 23" fill="none" xmlns="http://www.w3.org/2000/svg">
<g clip-path="url(#clip0_2026_1902)">
<path d="M12.6781 3.64409L12.6781 3.64405C12.4319 3.39799 12.0982 3.25977 11.7501 3.25977C11.4021 3.25977 11.0683 3.39799 10.8222 3.64405L10.8222 3.64409L5.52082 8.94543C5.39666 9.066 5.29756 9.20995 5.22924 9.36899C5.16045 9.52912 5.12424 9.70135 5.12273 9.87562C5.12122 10.0499 5.15442 10.2227 5.22042 10.384C5.28641 10.5453 5.38387 10.6919 5.5071 10.8151C5.63034 10.9383 5.77688 11.0358 5.93818 11.1018C6.09948 11.1678 6.27231 11.201 6.44659 11.1995C6.62086 11.198 6.79308 11.1618 6.95321 11.093C7.11226 11.0246 7.25621 10.9255 7.37679 10.8014L10.4376 7.74052V19.2505C10.4376 19.5986 10.5759 19.9324 10.8221 20.1786C11.0682 20.4247 11.402 20.563 11.7501 20.563C12.0982 20.563 12.4321 20.4247 12.6782 20.1786C12.9244 19.9324 13.0626 19.5986 13.0626 19.2505V7.74052L16.1256 10.8035L16.1256 10.8035L16.1302 10.808C16.3778 11.0471 16.7093 11.1794 17.0535 11.1764C17.3976 11.1734 17.7268 11.0354 17.9701 10.7921C18.2135 10.5487 18.3515 10.2195 18.3545 9.87539C18.3575 9.53125 18.2252 9.19971 17.9861 8.95217L17.9862 8.95213L17.9816 8.94753L12.6781 3.64409Z" fill="#00FF00" stroke="#00FF00" stroke-width="0.75"/>
</g>
<defs>
<clipPath id="clip0_2026_1902">
<rect width="22.5" height="22.5" fill="white" transform="translate(0.5 0.5)"/>
</clipPath>
</defs>
</svg>
