<svg width="55" height="54" viewBox="0 0 55 54" fill="none" xmlns="http://www.w3.org/2000/svg">
<rect x="0.696289" width="54" height="54" rx="27" fill="url(#paint0_linear_85_1527)"/>
<path d="M20.665 22.5H25.4463" stroke="white" stroke-width="1.6875" stroke-linecap="round" stroke-linejoin="round"/>
<path d="M38.3951 23.6953H35.2849C33.1513 23.6953 31.4229 25.3006 31.4229 27.2812C31.4229 29.2619 33.1525 30.8672 35.2837 30.8672H38.3951C38.4955 30.8672 38.5445 30.8672 38.5864 30.8648C39.2318 30.8254 39.7458 30.3484 39.7876 29.7496C39.79 29.7113 39.79 29.6647 39.79 29.5727V24.9898C39.79 24.8978 39.79 24.8512 39.7876 24.8129C39.7446 24.2141 39.2318 23.7371 38.5864 23.6977C38.5457 23.6953 38.4955 23.6953 38.3951 23.6953Z" stroke="white" stroke-width="2.53125"/>
<path d="M38.5529 23.6953C38.4597 21.4577 38.1608 20.0855 37.1938 19.1197C35.7941 17.7187 33.5397 17.7188 29.0322 17.7188H25.4463C20.9388 17.7188 18.6844 17.7187 17.2847 19.1197C15.885 20.5206 15.8838 22.7737 15.8838 27.2812C15.8838 31.7888 15.8838 34.0431 17.2847 35.4428C18.6856 36.8426 20.9388 36.8438 25.4463 36.8438H29.0322C33.5397 36.8438 35.7941 36.8437 37.1938 35.4428C38.1608 34.477 38.4609 33.1048 38.5529 30.8672" stroke="white" stroke-width="2.53125"/>
<path d="M34.998 27.2812H35.01" stroke="white" stroke-width="1.6875" stroke-linecap="round" stroke-linejoin="round"/>
<defs>
<linearGradient id="paint0_linear_85_1527" x1="0.696289" y1="27.5993" x2="54.6963" y2="26.4007" gradientUnits="userSpaceOnUse">
<stop stop-color="#00FF00"/>
<stop offset="1" stop-color="#007200"/>
</linearGradient>
</defs>
</svg>
