<svg width="42" height="41" viewBox="0 0 42 41" fill="none" xmlns="http://www.w3.org/2000/svg">
<rect x="0.522461" y="0.5" width="40.5" height="40.5" rx="20.25" fill="url(#paint0_linear_2541_2652)"/>
<path d="M15.499 17.375H19.085" stroke="white" stroke-width="1.26562" stroke-linecap="round" stroke-linejoin="round"/>
<path d="M28.7966 18.2715H26.4639C24.8637 18.2715 23.5674 19.4755 23.5674 20.9609C23.5674 22.4464 24.8646 23.6504 26.463 23.6504H28.7966C28.8719 23.6504 28.9086 23.6504 28.94 23.6486C29.4241 23.619 29.8096 23.2613 29.841 22.8122C29.8428 22.7835 29.8428 22.7485 29.8428 22.6795V19.2424C29.8428 19.1733 29.8428 19.1384 29.841 19.1097C29.8087 18.6606 29.4241 18.3029 28.94 18.2733C28.9095 18.2715 28.8719 18.2715 28.7966 18.2715Z" stroke="white" stroke-width="1.89844"/>
<path d="M28.9149 18.2715C28.845 16.5933 28.6209 15.5641 27.8956 14.8397C26.8458 13.7891 25.1551 13.7891 21.7744 13.7891H19.085C15.7043 13.7891 14.0135 13.7891 12.9638 14.8397C11.914 15.8904 11.9131 17.5803 11.9131 20.9609C11.9131 24.3416 11.9131 26.0323 12.9638 27.0821C14.0144 28.1319 15.7043 28.1328 19.085 28.1328H21.7744C25.1551 28.1328 26.8458 28.1328 27.8956 27.0821C28.6209 26.3578 28.8459 25.3286 28.9149 23.6504" stroke="white" stroke-width="1.89844"/>
<path d="M26.249 20.9609H26.258" stroke="white" stroke-width="1.26562" stroke-linecap="round" stroke-linejoin="round"/>
<defs>
<linearGradient id="paint0_linear_2541_2652" x1="0.522461" y1="21.1995" x2="41.0225" y2="20.3005" gradientUnits="userSpaceOnUse">
<stop stop-color="#FF3A00"/>
<stop offset="1" stop-color="#FF543E"/>
</linearGradient>
</defs>
</svg>
