<svg width="25" height="25" viewBox="0 0 25 25" fill="none" xmlns="http://www.w3.org/2000/svg">
<g clip-path="url(#clip0_252_3328)">
<path d="M1.3241 12.1063C1.32354 14.1228 1.85454 16.0917 2.86423 17.8271L1.22754 23.7566L7.34304 22.1656C9.03451 23.0792 10.9297 23.558 12.8555 23.5581H12.8606C19.2183 23.5581 24.3935 18.4248 24.3963 12.1153C24.3975 9.05792 23.1986 6.18295 21.0204 4.01997C18.8426 1.85718 15.9462 0.665458 12.8601 0.664062C6.50173 0.664062 1.32682 5.79709 1.3242 12.1063" fill="url(#paint0_linear_252_3328)"/>
<path d="M0.912813 12.1027C0.912156 14.1917 1.46219 16.231 2.50787 18.0286L0.8125 24.1707L7.14728 22.5226C8.89272 23.4668 10.8579 23.9647 12.8576 23.9654H12.8627C19.4485 23.9654 24.8097 18.6475 24.8125 12.1121C24.8136 8.94488 23.5716 5.96656 21.3156 3.72609C19.0593 1.48591 16.0593 0.251302 12.8627 0.25C6.27587 0.25 0.915438 5.56721 0.912813 12.1027ZM4.68541 17.719L4.44887 17.3465C3.45456 15.7777 2.92975 13.9649 2.9305 12.1034C2.93256 6.6713 7.38794 2.25186 12.8665 2.25186C15.5196 2.25298 18.013 3.27921 19.8884 5.14116C21.7637 7.0033 22.7956 9.47865 22.7949 12.1114C22.7925 17.5435 18.337 21.9635 12.8627 21.9635H12.8588C11.0763 21.9626 9.32819 21.4876 7.80363 20.59L7.44081 20.3765L3.68162 21.3545L4.68541 17.719Z" fill="url(#paint1_linear_252_3328)"/>
<path d="M9.87584 7.14771C9.65215 6.6544 9.41675 6.64445 9.20403 6.6358C9.02984 6.62836 8.83071 6.62892 8.63178 6.62892C8.43265 6.62892 8.10912 6.70324 7.83565 6.99952C7.5619 7.29608 6.79053 8.01273 6.79053 9.47031C6.79053 10.9279 7.8605 12.3366 8.00965 12.5345C8.159 12.732 10.0752 15.8189 13.1101 17.0064C15.6324 17.9933 16.1457 17.797 16.6931 17.7475C17.2406 17.6982 18.4597 17.0311 18.7084 16.3392C18.9573 15.6475 18.9573 15.0546 18.8827 14.9307C18.8081 14.8072 18.6089 14.7331 18.3103 14.585C18.0117 14.4369 16.5437 13.7201 16.2701 13.6212C15.9963 13.5224 15.7973 13.4731 15.5982 13.7698C15.399 14.0659 14.8272 14.7331 14.653 14.9307C14.4789 15.1287 14.3046 15.1534 14.0061 15.0052C13.7073 14.8565 12.7457 14.5441 11.6049 13.5349C10.7172 12.7496 10.118 11.7798 9.94381 11.4831C9.76962 11.187 9.92515 11.0264 10.0749 10.8788C10.209 10.746 10.3736 10.5328 10.523 10.3599C10.6719 10.1869 10.7216 10.0634 10.8211 9.86585C10.9208 9.66808 10.8709 9.49506 10.7964 9.34687C10.7216 9.19868 10.1413 7.73347 9.87584 7.14771Z" fill="white"/>
</g>
<defs>
<linearGradient id="paint0_linear_252_3328" x1="1159.66" y1="2309.92" x2="1159.66" y2="0.664062" gradientUnits="userSpaceOnUse">
<stop stop-color="#1FAF38"/>
<stop offset="1" stop-color="#60D669"/>
</linearGradient>
<linearGradient id="paint1_linear_252_3328" x1="1200.81" y1="2392.32" x2="1200.81" y2="0.25" gradientUnits="userSpaceOnUse">
<stop stop-color="#F9F9F9"/>
<stop offset="1" stop-color="white"/>
</linearGradient>
<clipPath id="clip0_252_3328">
<rect width="24" height="24" fill="white" transform="translate(0.8125 0.25)"/>
</clipPath>
</defs>
</svg>
