<svg width="17" height="17" viewBox="0 0 17 17" fill="none" xmlns="http://www.w3.org/2000/svg">
<path d="M13.4062 2.4375H11.8594V1.92188C11.8594 1.78512 11.8051 1.65397 11.7084 1.55727C11.6117 1.46057 11.4805 1.40625 11.3438 1.40625C11.207 1.40625 11.0758 1.46057 10.9791 1.55727C10.8824 1.65397 10.8281 1.78512 10.8281 1.92188V2.4375H5.67188V1.92188C5.67188 1.78512 5.61755 1.65397 5.52085 1.55727C5.42415 1.46057 5.293 1.40625 5.15625 1.40625C5.0195 1.40625 4.88835 1.46057 4.79165 1.55727C4.69495 1.65397 4.64062 1.78512 4.64062 1.92188V2.4375H3.09375C2.82025 2.4375 2.55794 2.54615 2.36455 2.73955C2.17115 2.93294 2.0625 3.19525 2.0625 3.46875V13.7812C2.0625 14.0548 2.17115 14.3171 2.36455 14.5105C2.55794 14.7039 2.82025 14.8125 3.09375 14.8125H13.4062C13.6798 14.8125 13.9421 14.7039 14.1355 14.5105C14.3289 14.3171 14.4375 14.0548 14.4375 13.7812V3.46875C14.4375 3.19525 14.3289 2.93294 14.1355 2.73955C13.9421 2.54615 13.6798 2.4375 13.4062 2.4375ZM4.64062 3.46875V3.98438C4.64062 4.12113 4.69495 4.25228 4.79165 4.34898C4.88835 4.44568 5.0195 4.5 5.15625 4.5C5.293 4.5 5.42415 4.44568 5.52085 4.34898C5.61755 4.25228 5.67188 4.12113 5.67188 3.98438V3.46875H10.8281V3.98438C10.8281 4.12113 10.8824 4.25228 10.9791 4.34898C11.0758 4.44568 11.207 4.5 11.3438 4.5C11.4805 4.5 11.6117 4.44568 11.7084 4.34898C11.8051 4.25228 11.8594 4.12113 11.8594 3.98438V3.46875H13.4062V5.53125H3.09375V3.46875H4.64062ZM13.4062 13.7812H3.09375V6.5625H13.4062V13.7812ZM7.21875 8.10938V12.2344C7.21875 12.3711 7.16443 12.5023 7.06773 12.599C6.97103 12.6957 6.83988 12.75 6.70312 12.75C6.56637 12.75 6.43522 12.6957 6.33852 12.599C6.24182 12.5023 6.1875 12.3711 6.1875 12.2344V8.9434L5.90262 9.08648C5.78022 9.14768 5.63853 9.15775 5.50872 9.11448C5.3789 9.07121 5.27159 8.97814 5.21039 8.85574C5.14919 8.73335 5.13912 8.59166 5.1824 8.46184C5.22567 8.33202 5.31874 8.22471 5.44113 8.16352L6.47238 7.64789C6.55102 7.60854 6.63842 7.58995 6.72627 7.5939C6.81412 7.59785 6.8995 7.6242 6.97429 7.67044C7.04909 7.71669 7.11081 7.78129 7.1536 7.85812C7.19639 7.93495 7.21881 8.02144 7.21875 8.10938ZM11.0318 10.072L9.79688 11.7188H10.8281C10.9649 11.7188 11.096 11.7731 11.1927 11.8698C11.2894 11.9665 11.3438 12.0976 11.3438 12.2344C11.3438 12.3711 11.2894 12.5023 11.1927 12.599C11.096 12.6957 10.9649 12.75 10.8281 12.75H8.76562C8.66987 12.75 8.576 12.7233 8.49454 12.673C8.41309 12.6226 8.34726 12.5506 8.30444 12.465C8.26161 12.3793 8.24348 12.2834 8.25208 12.1881C8.26068 12.0927 8.29567 12.0016 8.35313 11.925L10.2081 9.45193C10.2503 9.39576 10.2805 9.33156 10.297 9.26327C10.3135 9.19498 10.3159 9.12405 10.304 9.05481C10.2921 8.98558 10.2661 8.91951 10.2278 8.86066C10.1894 8.80181 10.1394 8.75142 10.0809 8.71258C10.0223 8.67375 9.95646 8.64728 9.88733 8.63481C9.81819 8.62234 9.74724 8.62414 9.67882 8.64008C9.6104 8.65602 9.54596 8.68577 9.48945 8.72751C9.43294 8.76925 9.38556 8.8221 9.35022 8.88281C9.31736 8.94332 9.27271 8.99664 9.21892 9.03962C9.16512 9.08259 9.10326 9.11436 9.03699 9.13304C8.97071 9.15172 8.90137 9.15694 8.83305 9.14839C8.76473 9.13984 8.69881 9.11769 8.63918 9.08325C8.57956 9.04881 8.52744 9.00278 8.48589 8.94787C8.44435 8.89296 8.41422 8.83028 8.39729 8.76354C8.38036 8.6968 8.37697 8.62734 8.38732 8.55927C8.39766 8.4912 8.42154 8.42588 8.45754 8.36719C8.62786 8.07244 8.89067 7.8421 9.2052 7.71189C9.51974 7.58168 9.86845 7.55887 10.1973 7.64698C10.5261 7.7351 10.8167 7.92923 11.0239 8.19927C11.2312 8.46932 11.3436 8.8002 11.3438 9.14062C11.3448 9.4769 11.2352 9.80419 11.0318 10.072Z" fill="white"/>
</svg>
