<svg width="32" height="33" viewBox="0 0 32 33" fill="none" xmlns="http://www.w3.org/2000/svg">
<rect x="0.354279" y="1.06326" width="31.0906" height="31.0906" rx="3.88633" fill="#00FF00" fill-opacity="0.14" stroke="#00FF00" stroke-width="0.706605"/>
<path d="M23.3634 22.5711C23.5626 22.7702 23.6744 23.0403 23.6744 23.3219C23.6744 23.6035 23.5626 23.8735 23.3634 24.0726C23.1643 24.2717 22.8943 24.3836 22.6127 24.3836C22.3311 24.3836 22.061 24.2717 21.8619 24.0726L16.2541 18.4631L10.6445 24.0709C10.4454 24.27 10.1754 24.3818 9.89378 24.3818C9.61219 24.3818 9.34213 24.27 9.14301 24.0709C8.94389 23.8717 8.83203 23.6017 8.83203 23.3201C8.83203 23.0385 8.94389 22.7684 9.14301 22.5693L14.7526 16.9615L9.14478 11.352C8.94566 11.1529 8.8338 10.8828 8.8338 10.6012C8.8338 10.3196 8.94566 10.0496 9.14478 9.85044C9.34389 9.65132 9.61395 9.53946 9.89554 9.53946C10.1771 9.53946 10.4472 9.65132 10.6463 9.85044L16.2541 15.46L21.8637 9.84955C22.0628 9.65044 22.3328 9.53857 22.6144 9.53857C22.896 9.53857 23.1661 9.65044 23.3652 9.84955C23.5643 10.0487 23.6762 10.3187 23.6762 10.6003C23.6762 10.8819 23.5643 11.152 23.3652 11.3511L17.7556 16.9615L23.3634 22.5711Z" fill="#00FF00"/>
</svg>
